<svg version="1.1" xmlns="http://www.w3.org/2000/svg" xmlns:xlink="http://www.w3.org/1999/xlink" width="1557" height="1092"><defs/><g><g><rect fill="#C0C0C0" stroke="none" x="407" y="95" width="896" height="1072" transform="matrix(1 0 0 1 -86 -78)" fill-opacity="0.2"/></g><g><rect fill="#ffffff" stroke="none" x="400" y="88" width="896" height="1072" transform="matrix(1 0 0 1 -86 -78)"/></g><g><path fill="none" stroke="#000000" paint-order="fill stroke markers" d=" M 314 10 L 1210 10 L 1210 1082 L 314 1082 L 314 10 Z Z" stroke-miterlimit="10" stroke-dasharray=""/></g><g><g><path fill="none" stroke="none"/><text fill="#000000" stroke="none" font-family="Arial" font-size="13px" font-style="normal" font-weight="bold" text-decoration="undefined" x="848.5" y="101.5" text-anchor="middle" dominant-baseline="central" transform="matrix(1 0 0 1 -86 -78)">Celular Seguro</text></g></g><g><path fill="#ffffff" stroke="none" paint-order="stroke fill markers" d=" M 61.64480308948865 429.53 C 61.64480308948865 414.877884256 73.08644993516137 403 87.200439453125 403 C 101.31442897108863 403 112.75607581676135 414.877884256 112.75607581676135 429.53 C 112.75607581676135 444.18211574399993 101.31442897108863 456.05999999999995 87.200439453125 456.05999999999995 C 73.08644993516137 456.05999999999995 61.64480308948865 444.18211574399993 61.64480308948865 429.53 Z"/></g><g><path fill="none" stroke="#000000" paint-order="fill stroke markers" d=" M 61.64480308948865 429.53 C 61.64480308948865 414.877884256 73.08644993516137 403 87.200439453125 403 C 101.31442897108863 403 112.75607581676135 414.877884256 112.75607581676135 429.53 C 112.75607581676135 444.18211574399993 101.31442897108863 456.05999999999995 87.200439453125 456.05999999999995 C 73.08644993516137 456.05999999999995 61.64480308948865 444.18211574399993 61.64480308948865 429.53 Z" stroke-miterlimit="10" stroke-dasharray=""/></g><g><path fill="none" stroke="#000000" paint-order="fill stroke markers" d=" M 87.200439453125 456.05999999999995 L 87.200439453125 506.94000000000005" stroke-miterlimit="10" stroke-dasharray=""/></g><g><path fill="none" stroke="#000000" paint-order="fill stroke markers" d=" M 60.14153036221592 475.14 L 114.25934854403408 475.14" stroke-miterlimit="10" stroke-dasharray=""/></g><g><path fill="none" stroke="#000000" paint-order="fill stroke markers" d=" M 87.200439453125 506.94000000000005 L 49.618621271306836 560" stroke-miterlimit="10" stroke-dasharray=""/></g><g><path fill="none" stroke="#000000" paint-order="fill stroke markers" d=" M 87.200439453125 506.94000000000005 L 124.78225763494316 560" stroke-miterlimit="10" stroke-dasharray=""/></g><g><g><path fill="none" stroke="none"/><text fill="#000000" stroke="none" font-family="Arial" font-size="13px" font-style="normal" font-weight="bold" text-decoration="undefined" x="173.700439453125" y="652.5" text-anchor="middle" dominant-baseline="central" transform="matrix(1 0 0 1 -86 -78)">Usuário</text></g></g><g><path fill="#ffffff" stroke="none" paint-order="stroke fill markers" d=" M 1442.730909090909 218.64999999999998 C 1442.730909090909 210.00674288 1449.567113181091 203 1458 203 C 1466.432886818909 203 1473.269090909091 210.00674288 1473.269090909091 218.64999999999998 C 1473.269090909091 227.29325711999996 1466.432886818909 234.3 1458 234.3 C 1449.567113181091 234.3 1442.730909090909 227.29325711999996 1442.730909090909 218.64999999999998 Z"/></g><g><path fill="none" stroke="#000000" paint-order="fill stroke markers" d=" M 1442.730909090909 218.64999999999998 C 1442.730909090909 210.00674288 1449.567113181091 203 1458 203 C 1466.432886818909 203 1473.269090909091 210.00674288 1473.269090909091 218.64999999999998 C 1473.269090909091 227.29325711999996 1466.432886818909 234.3 1458 234.3 C 1449.567113181091 234.3 1442.730909090909 227.29325711999996 1442.730909090909 218.64999999999998 Z" stroke-miterlimit="10" stroke-dasharray=""/></g><g><path fill="none" stroke="#000000" paint-order="fill stroke markers" d=" M 1458 234.3 L 1458 264.7" stroke-miterlimit="10" stroke-dasharray=""/></g><g><path fill="none" stroke="#000000" paint-order="fill stroke markers" d=" M 1441.8327272727272 245.7 L 1474.1672727272728 245.7" stroke-miterlimit="10" stroke-dasharray=""/></g><g><path fill="none" stroke="#000000" paint-order="fill stroke markers" d=" M 1458 264.7 L 1435.5454545454545 296" stroke-miterlimit="10" stroke-dasharray=""/></g><g><path fill="none" stroke="#000000" paint-order="fill stroke markers" d=" M 1458 264.7 L 1480.4545454545455 296" stroke-miterlimit="10" stroke-dasharray=""/></g><g><g><path fill="none" stroke="none"/><text fill="#000000" stroke="none" font-family="Arial" font-size="13px" font-style="normal" font-weight="bold" text-decoration="undefined" x="1544.5" y="388.5" text-anchor="middle" dominant-baseline="central" transform="matrix(1 0 0 1 -86 -78)">Sistema Policial</text></g></g><g><path fill="#ffffff" stroke="none" paint-order="stroke fill markers" d=" M 1429.4450909090908 636.01 C 1429.4450909090908 626.615635552 1436.856975343709 619 1446 619 C 1455.143024656291 619 1462.5549090909092 626.615635552 1462.5549090909092 636.01 C 1462.5549090909092 645.404364448 1455.143024656291 653.02 1446 653.02 C 1436.856975343709 653.02 1429.4450909090908 645.404364448 1429.4450909090908 636.01 Z"/></g><g><path fill="none" stroke="#000000" paint-order="fill stroke markers" d=" M 1429.4450909090908 636.01 C 1429.4450909090908 626.615635552 1436.856975343709 619 1446 619 C 1455.143024656291 619 1462.5549090909092 626.615635552 1462.5549090909092 636.01 C 1462.5549090909092 645.404364448 1455.143024656291 653.02 1446 653.02 C 1436.856975343709 653.02 1429.4450909090908 645.404364448 1429.4450909090908 636.01 Z" stroke-miterlimit="10" stroke-dasharray=""/></g><g><path fill="none" stroke="#000000" paint-order="fill stroke markers" d=" M 1446 653.02 L 1446 685.98" stroke-miterlimit="10" stroke-dasharray=""/></g><g><path fill="none" stroke="#000000" paint-order="fill stroke markers" d=" M 1428.4712727272727 665.38 L 1463.5287272727273 665.38" stroke-miterlimit="10" stroke-dasharray=""/></g><g><path fill="none" stroke="#000000" paint-order="fill stroke markers" d=" M 1446 685.98 L 1421.6545454545453 720" stroke-miterlimit="10" stroke-dasharray=""/></g><g><path fill="none" stroke="#000000" paint-order="fill stroke markers" d=" M 1446 685.98 L 1470.3454545454547 720" stroke-miterlimit="10" stroke-dasharray=""/></g><g><g><path fill="none" stroke="none"/><text fill="#000000" stroke="none" font-family="Arial" font-size="13px" font-style="normal" font-weight="bold" text-decoration="undefined" x="1532.5" y="812.5" text-anchor="middle" dominant-baseline="central" transform="matrix(1 0 0 1 -86 -78)">Sistemas Bancários</text></g></g><g><path fill="#C0C0C0" stroke="none" paint-order="stroke fill markers" d=" M 481 261 C 481 249.95430399999998 518.3842192 241 564.5 241 C 610.6157808 241 648 249.95430399999998 648 261 C 648 272.045696 610.6157808 281 564.5 281 C 518.3842192 281 481 272.045696 481 261 Z" fill-opacity="0.2"/></g><g><path fill="#ffffff" stroke="none" paint-order="stroke fill markers" d=" M 474 254 C 474 242.95430399999998 511.38421919999996 234 557.5 234 C 603.6157808 234 641 242.95430399999998 641 254 C 641 265.045696 603.6157808 274 557.5 274 C 511.38421919999996 274 474 265.045696 474 254 Z"/></g><g><path fill="none" stroke="#000000" paint-order="fill stroke markers" d=" M 474 254 C 474 242.95430399999998 511.38421919999996 234 557.5 234 C 603.6157808 234 641 242.95430399999998 641 254 C 641 265.045696 603.6157808 274 557.5 274 C 511.38421919999996 274 474 265.045696 474 254 Z" stroke-miterlimit="10" stroke-dasharray=""/></g><g><g><path fill="none" stroke="none"/><text fill="#000000" stroke="none" font-family="Arial" font-size="13px" font-style="normal" font-weight="bold" text-decoration="undefined" x="643.5" y="333" text-anchor="middle" dominant-baseline="central" transform="matrix(1 0 0 1 -86 -78)">Registrar Boletim</text></g></g><g><path fill="#C0C0C0" stroke="none" paint-order="stroke fill markers" d=" M 409 511.5 C 409 499.07359199999996 471.2324128 489 548 489 C 624.7675872 489 687 499.07359199999996 687 511.5 C 687 523.926408 624.7675872 534 548 534 C 471.2324128 534 409 523.926408 409 511.5 Z" fill-opacity="0.2"/></g><g><path fill="#ffffff" stroke="none" paint-order="stroke fill markers" d=" M 402 504.5 C 402 492.07359199999996 464.2324128 482 541 482 C 617.7675872 482 680 492.07359199999996 680 504.5 C 680 516.926408 617.7675872 527 541 527 C 464.2324128 527 402 516.926408 402 504.5 Z"/></g><g><path fill="none" stroke="#000000" paint-order="fill stroke markers" d=" M 402 504.5 C 402 492.07359199999996 464.2324128 482 541 482 C 617.7675872 482 680 492.07359199999996 680 504.5 C 680 516.926408 617.7675872 527 541 527 C 464.2324128 527 402 516.926408 402 504.5 Z" stroke-miterlimit="10" stroke-dasharray=""/></g><g><path fill="none" stroke="#000000" paint-order="fill stroke markers" d=" M 402 532 L 679 532" stroke-miterlimit="10" stroke-dasharray=""/></g><g><g><path fill="none" stroke="none"/><text fill="#000000" stroke="none" font-family="Arial" font-size="13px" font-style="normal" font-weight="bold" text-decoration="undefined" x="627" y="586" text-anchor="middle" dominant-baseline="central" transform="matrix(1 0 0 1 -86 -78)">Bloqueio Remoto do Aparelho</text></g></g><g><g><path fill="none" stroke="none"/><text fill="#000000" stroke="none" font-family="Arial" font-size="13px" font-style="normal" font-weight="normal" text-decoration="undefined" x="493" y="621.5" text-anchor="start" dominant-baseline="central" transform="matrix(1 0 0 1 -86 -78)">Apagar dados do aparelho</text></g></g><g><g><path fill="none" stroke="none"/><text fill="#000000" stroke="none" font-family="Arial" font-size="13px" font-style="normal" font-weight="normal" text-decoration="undefined" x="493" y="636.5" text-anchor="start" dominant-baseline="central" transform="matrix(1 0 0 1 -86 -78)">Emitir Alerta somnoro</text></g></g><g><path fill="#C0C0C0" stroke="none" paint-order="stroke fill markers" d=" M 521 801 C 521 778.908608 580.0984064 761 653 761 C 725.9015936 761 785 778.908608 785 801 C 785 823.091392 725.9015936 841 653 841 C 580.0984064 841 521 823.091392 521 801 Z" fill-opacity="0.2"/></g><g><path fill="#ffffff" stroke="none" paint-order="stroke fill markers" d=" M 514 794 C 514 771.908608 573.0984064 754 646 754 C 718.9015936 754 778 771.908608 778 794 C 778 816.091392 718.9015936 834 646 834 C 573.0984064 834 514 816.091392 514 794 Z"/></g><g><path fill="none" stroke="#000000" paint-order="fill stroke markers" d=" M 514 794 C 514 771.908608 573.0984064 754 646 754 C 718.9015936 754 778 771.908608 778 794 C 778 816.091392 718.9015936 834 646 834 C 573.0984064 834 514 816.091392 514 794 Z" stroke-miterlimit="10" stroke-dasharray=""/></g><g><g><path fill="none" stroke="none"/><text fill="#000000" stroke="none" font-family="Arial" font-size="13px" font-style="normal" font-weight="bold" text-decoration="undefined" x="732" y="873" text-anchor="middle" dominant-baseline="central" transform="matrix(1 0 0 1 -86 -78)">Backup de dados periódicos</text></g></g><g><path fill="#C0C0C0" stroke="none" paint-order="stroke fill markers" d=" M 521 941 C 521 921.1177472 588.6049952 905 672 905 C 755.3950048 905 823 921.1177472 823 941 C 823 960.8822528000001 755.3950048 977 672 977 C 588.6049952 977 521 960.8822528000001 521 941 Z" fill-opacity="0.2"/></g><g><path fill="#ffffff" stroke="none" paint-order="stroke fill markers" d=" M 514 934 C 514 914.1177472 581.6049952 898 665 898 C 748.3950048 898 816 914.1177472 816 934 C 816 953.8822528000001 748.3950048 970 665 970 C 581.6049952 970 514 953.8822528000001 514 934 Z"/></g><g><path fill="none" stroke="#000000" paint-order="fill stroke markers" d=" M 514 934 C 514 914.1177472 581.6049952 898 665 898 C 748.3950048 898 816 914.1177472 816 934 C 816 953.8822528000001 748.3950048 970 665 970 C 581.6049952 970 514 953.8822528000001 514 934 Z" stroke-miterlimit="10" stroke-dasharray=""/></g><g><g><path fill="none" stroke="none"/><text fill="#000000" stroke="none" font-family="Arial" font-size="13px" font-style="normal" font-weight="bold" text-decoration="undefined" x="751" y="1013" text-anchor="middle" dominant-baseline="central" transform="matrix(1 0 0 1 -86 -78)">Gerar relatório de movimentação</text></g></g><g><path fill="#C0C0C0" stroke="none" paint-order="stroke fill markers" d=" M 657 701 C 657 681.1177472 714.0836879999999 665 784.5 665 C 854.9163120000001 665 912 681.1177472 912 701 C 912 720.8822528 854.9163120000001 737 784.5 737 C 714.0836879999999 737 657 720.8822528 657 701 Z" fill-opacity="0.2"/></g><g><path fill="#ffffff" stroke="none" paint-order="stroke fill markers" d=" M 650 694 C 650 674.1177472 707.0836879999999 658 777.5 658 C 847.9163120000001 658 905 674.1177472 905 694 C 905 713.8822528 847.9163120000001 730 777.5 730 C 707.0836879999999 730 650 713.8822528 650 694 Z"/></g><g><path fill="none" stroke="#000000" paint-order="fill stroke markers" d=" M 650 694 C 650 674.1177472 707.0836879999999 658 777.5 658 C 847.9163120000001 658 905 674.1177472 905 694 C 905 713.8822528 847.9163120000001 730 777.5 730 C 707.0836879999999 730 650 713.8822528 650 694 Z" stroke-miterlimit="10" stroke-dasharray=""/></g><g><g><path fill="none" stroke="none"/><text fill="#000000" stroke="none" font-family="Arial" font-size="13px" font-style="normal" font-weight="bold" text-decoration="undefined" x="863.5" y="773" text-anchor="middle" dominant-baseline="central" transform="matrix(1 0 0 1 -86 -78)">Gerenciar contas bancárias</text></g></g><g><path fill="#C0C0C0" stroke="none" paint-order="stroke fill markers" d=" M 457 133 C 457 117.53602559999999 499.30908639999996 105 551.5 105 C 603.6909136 105 646 117.53602559999999 646 133 C 646 148.4639744 603.6909136 161 551.5 161 C 499.30908639999996 161 457 148.4639744 457 133 Z" fill-opacity="0.2"/></g><g><path fill="#ffffff" stroke="none" paint-order="stroke fill markers" d=" M 450 126 C 450 110.53602559999999 492.30908639999996 98 544.5 98 C 596.6909136 98 639 110.53602559999999 639 126 C 639 141.4639744 596.6909136 154 544.5 154 C 492.30908639999996 154 450 141.4639744 450 126 Z"/></g><g><path fill="none" stroke="#000000" paint-order="fill stroke markers" d=" M 450 126 C 450 110.53602559999999 492.30908639999996 98 544.5 98 C 596.6909136 98 639 110.53602559999999 639 126 C 639 141.4639744 596.6909136 154 544.5 154 C 492.30908639999996 154 450 141.4639744 450 126 Z" stroke-miterlimit="10" stroke-dasharray=""/></g><g><g><path fill="none" stroke="none"/><text fill="#000000" stroke="none" font-family="Arial" font-size="12px" font-style="normal" font-weight="bold" text-decoration="undefined" x="630.5" y="205" text-anchor="middle" dominant-baseline="central" transform="matrix(1 0 0 1 -86 -78)">Emitir alerta de roubo</text></g></g><g><path fill="#C0C0C0" stroke="none" paint-order="stroke fill markers" d=" M 465 417 C 465 403.7451648 501.0410736 393 545.5 393 C 589.9589264 393 626 403.7451648 626 417 C 626 430.2548352 589.9589264 441 545.5 441 C 501.0410736 441 465 430.2548352 465 417 Z" fill-opacity="0.2"/></g><g><path fill="#ffffff" stroke="none" paint-order="stroke fill markers" d=" M 458 410 C 458 396.7451648 494.0410736 386 538.5 386 C 582.9589264 386 619 396.7451648 619 410 C 619 423.2548352 582.9589264 434 538.5 434 C 494.0410736 434 458 423.2548352 458 410 Z"/></g><g><path fill="none" stroke="#000000" paint-order="fill stroke markers" d=" M 458 410 C 458 396.7451648 494.0410736 386 538.5 386 C 582.9589264 386 619 396.7451648 619 410 C 619 423.2548352 582.9589264 434 538.5 434 C 494.0410736 434 458 423.2548352 458 410 Z" stroke-miterlimit="10" stroke-dasharray=""/></g><g><g><path fill="none" stroke="none"/><text fill="#000000" stroke="none" font-family="Arial" font-size="13px" font-style="normal" font-weight="bold" text-decoration="undefined" x="624.5" y="489" text-anchor="middle" dominant-baseline="central" transform="matrix(1 0 0 1 -86 -78)">Localizar Celular</text></g></g><g><path fill="#C0C0C0" stroke="none" paint-order="stroke fill markers" d=" M 441 1022.5 C 441 1006.2075984 470.54920319999997 993 507 993 C 543.4507968 993 573 1006.2075984 573 1022.5 C 573 1038.7924016 543.4507968 1052 507 1052 C 470.54920319999997 1052 441 1038.7924016 441 1022.5 Z" fill-opacity="0.2"/></g><g><path fill="#ffffff" stroke="none" paint-order="stroke fill markers" d=" M 434 1015.5 C 434 999.2075984 463.54920319999997 986 500 986 C 536.4507968 986 566 999.2075984 566 1015.5 C 566 1031.7924016 536.4507968 1045 500 1045 C 463.54920319999997 1045 434 1031.7924016 434 1015.5 Z"/></g><g><path fill="none" stroke="#000000" paint-order="fill stroke markers" d=" M 434 1015.5 C 434 999.2075984 463.54920319999997 986 500 986 C 536.4507968 986 566 999.2075984 566 1015.5 C 566 1031.7924016 536.4507968 1045 500 1045 C 463.54920319999997 1045 434 1031.7924016 434 1015.5 Z" stroke-miterlimit="10" stroke-dasharray=""/></g><g><g><path fill="none" stroke="none"/><text fill="#000000" stroke="none" font-family="Arial" font-size="13px" font-style="normal" font-weight="bold" text-decoration="undefined" x="586" y="1094.5" text-anchor="middle" dominant-baseline="central" transform="matrix(1 0 0 1 -86 -78)">Editar perfil</text></g></g><g><path fill="none" stroke="#000000" paint-order="fill stroke markers" d=" M 165 431 L 508 155" stroke-miterlimit="10" stroke-dasharray=""/></g><g><path fill="none" stroke="#000000" paint-order="fill stroke markers" d=" M 165 454 L 516 275" stroke-miterlimit="10" stroke-dasharray=""/></g><g><path fill="none" stroke="#000000" paint-order="fill stroke markers" d=" M 165 479 L 457 425" stroke-miterlimit="10" stroke-dasharray=""/></g><g><path fill="none" stroke="#000000" paint-order="fill stroke markers" d=" M 165 500 L 401 516" stroke-miterlimit="10" stroke-dasharray=""/></g><g><path fill="none" stroke="#000000" paint-order="fill stroke markers" d=" M 165 517 L 649 657" stroke-miterlimit="10" stroke-dasharray=""/></g><g><path fill="none" stroke="#000000" paint-order="fill stroke markers" d=" M 165 536 L 570 753" stroke-miterlimit="10" stroke-dasharray=""/></g><g><path fill="none" stroke="#000000" paint-order="fill stroke markers" d=" M 165 554 L 616 897" stroke-miterlimit="10" stroke-dasharray=""/></g><g><path fill="none" stroke="#000000" paint-order="fill stroke markers" d=" M 161 587 L 476 985" stroke-miterlimit="10" stroke-dasharray=""/></g><g><path fill="#C0C0C0" stroke="none" paint-order="stroke fill markers" d=" M 705 90.5 C 705 80.835016 749.9953776 73 805.5 73 C 861.0046224 73 906 80.835016 906 90.5 C 906 100.164984 861.0046224 108 805.5 108 C 749.9953776 108 705 100.164984 705 90.5 Z" fill-opacity="0.2"/></g><g><path fill="#ffffff" stroke="none" paint-order="stroke fill markers" d=" M 698 83.5 C 698 73.835016 742.9953776 66 798.5 66 C 854.0046224 66 899 73.835016 899 83.5 C 899 93.164984 854.0046224 101 798.5 101 C 742.9953776 101 698 93.164984 698 83.5 Z"/></g><g><path fill="none" stroke="#000000" paint-order="fill stroke markers" d=" M 698 83.5 C 698 73.835016 742.9953776 66 798.5 66 C 854.0046224 66 899 73.835016 899 83.5 C 899 93.164984 854.0046224 101 798.5 101 C 742.9953776 101 698 93.164984 698 83.5 Z" stroke-miterlimit="10" stroke-dasharray=""/></g><g><g><path fill="none" stroke="none"/><text fill="#000000" stroke="none" font-family="Arial" font-size="13px" font-style="normal" font-weight="bold" text-decoration="undefined" x="884.5" y="162.5" text-anchor="middle" dominant-baseline="central" transform="matrix(1 0 0 1 -86 -78)">Poup de confirmação</text></g></g><g><path fill="none" stroke="#000000" paint-order="fill stroke markers" d=" M 640 110 L 697 100" stroke-miterlimit="10" stroke-dasharray="3"/></g><g><path fill="none" stroke="#000000" paint-order="fill stroke markers" d=" M 687.7176044806921 105.9022989947251 L 697 100 L 686.2627995388812 97.60991082640243" stroke-miterlimit="10" stroke-dasharray=""/></g><g><rect fill="#ffffff" stroke="none" x="721" y="147" width="55.65625" height="13" transform="matrix(1 0 0 1 -86 -78)"/></g><g><g><path fill="none" stroke="none"/><text fill="#000000" stroke="none" font-family="Arial" font-size="13px" font-style="normal" font-weight="normal" text-decoration="undefined" x="748.828125" y="153.5" text-anchor="middle" dominant-baseline="central" transform="matrix(1 0 0 1 -86 -78)">«include»</text></g></g><g><path fill="#C0C0C0" stroke="none" paint-order="stroke fill markers" d=" M 961 74.5 C 961 64.835016 1012.9349632000001 57 1077 57 C 1141.0650368 57 1193 64.835016 1193 74.5 C 1193 84.164984 1141.0650368 92 1077 92 C 1012.9349632000001 92 961 84.164984 961 74.5 Z" fill-opacity="0.2"/></g><g><path fill="#ffffff" stroke="none" paint-order="stroke fill markers" d=" M 954 67.5 C 954 57.835015999999996 1005.9349632000001 50 1070 50 C 1134.0650368 50 1186 57.835015999999996 1186 67.5 C 1186 77.164984 1134.0650368 85 1070 85 C 1005.9349632000001 85 954 77.164984 954 67.5 Z"/></g><g><path fill="none" stroke="#000000" paint-order="fill stroke markers" d=" M 954 67.5 C 954 57.835015999999996 1005.9349632000001 50 1070 50 C 1134.0650368 50 1186 57.835015999999996 1186 67.5 C 1186 77.164984 1134.0650368 85 1070 85 C 1005.9349632000001 85 954 77.164984 954 67.5 Z" stroke-miterlimit="10" stroke-dasharray=""/></g><g><g><path fill="none" stroke="none"/><text fill="#000000" stroke="none" font-family="Arial" font-size="13px" font-style="normal" font-weight="bold" text-decoration="undefined" x="1156" y="146.5" text-anchor="middle" dominant-baseline="central" transform="matrix(1 0 0 1 -86 -78)">Guia de Ações pós-Furto</text></g></g><g><path fill="none" stroke="#000000" paint-order="fill stroke markers" d=" M 900 77 L 953 74" stroke-miterlimit="10" stroke-dasharray="3"/></g><g><path fill="none" stroke="#000000" paint-order="fill stroke markers" d=" M 943.0914604549685 78.77711671246837 L 953 74 L 942.6156728741471 70.37153611795904" stroke-miterlimit="10" stroke-dasharray=""/></g><g><rect fill="#ffffff" stroke="none" x="983" y="117" width="55.65625" height="13" transform="matrix(1 0 0 1 -86 -78)"/></g><g><g><path fill="none" stroke="none"/><text fill="#000000" stroke="none" font-family="Arial" font-size="13px" font-style="normal" font-weight="normal" text-decoration="undefined" x="1010.828125" y="123.5" text-anchor="middle" dominant-baseline="central" transform="matrix(1 0 0 1 -86 -78)">«include»</text></g></g><g><path fill="#C0C0C0" stroke="none" paint-order="stroke fill markers" d=" M 849 138.5 C 849 128.835016 893.9953776 121 949.5 121 C 1005.0046224 121 1050 128.835016 1050 138.5 C 1050 148.164984 1005.0046224 156 949.5 156 C 893.9953776 156 849 148.164984 849 138.5 Z" fill-opacity="0.2"/></g><g><path fill="#ffffff" stroke="none" paint-order="stroke fill markers" d=" M 842 131.5 C 842 121.835016 886.9953776 114 942.5 114 C 998.0046224 114 1043 121.835016 1043 131.5 C 1043 141.164984 998.0046224 149 942.5 149 C 886.9953776 149 842 141.164984 842 131.5 Z"/></g><g><path fill="none" stroke="#000000" paint-order="fill stroke markers" d=" M 842 131.5 C 842 121.835016 886.9953776 114 942.5 114 C 998.0046224 114 1043 121.835016 1043 131.5 C 1043 141.164984 998.0046224 149 942.5 149 C 886.9953776 149 842 141.164984 842 131.5 Z" stroke-miterlimit="10" stroke-dasharray=""/></g><g><g><path fill="none" stroke="none"/><text fill="#000000" stroke="none" font-family="Arial" font-size="13px" font-style="normal" font-weight="bold" text-decoration="undefined" x="1028.5" y="210.5" text-anchor="middle" dominant-baseline="central" transform="matrix(1 0 0 1 -86 -78)">Notificar Autoridades</text></g></g><g><path fill="none" stroke="#000000" paint-order="fill stroke markers" d=" M 623 233 L 883 150" stroke-miterlimit="10" stroke-dasharray="3"/></g><g><path fill="none" stroke="#000000" paint-order="fill stroke markers" d=" M 874.5988240197645 157.10072124147362 L 883 150 L 872.0385033532726 149.0804396355953" stroke-miterlimit="10" stroke-dasharray=""/></g><g><rect fill="#ffffff" stroke="none" x="802" y="234" width="55.65625" height="13" transform="matrix(1 0 0 1 -86 -78)"/></g><g><g><path fill="none" stroke="none"/><text fill="#000000" stroke="none" font-family="Arial" font-size="13px" font-style="normal" font-weight="normal" text-decoration="undefined" x="829.828125" y="240.5" text-anchor="middle" dominant-baseline="central" transform="matrix(1 0 0 1 -86 -78)">«include»</text></g></g><g><path fill="#C0C0C0" stroke="none" paint-order="stroke fill markers" d=" M 841 186.5 C 841 176.835016 899.4268336 169 971.5 169 C 1043.5731664 169 1102 176.835016 1102 186.5 C 1102 196.164984 1043.5731664 204 971.5 204 C 899.4268336 204 841 196.164984 841 186.5 Z" fill-opacity="0.2"/></g><g><path fill="#ffffff" stroke="none" paint-order="stroke fill markers" d=" M 834 179.5 C 834 169.835016 892.4268336 162 964.5 162 C 1036.5731664 162 1095 169.835016 1095 179.5 C 1095 189.164984 1036.5731664 197 964.5 197 C 892.4268336 197 834 189.164984 834 179.5 Z"/></g><g><path fill="none" stroke="#000000" paint-order="fill stroke markers" d=" M 834 179.5 C 834 169.835016 892.4268336 162 964.5 162 C 1036.5731664 162 1095 169.835016 1095 179.5 C 1095 189.164984 1036.5731664 197 964.5 197 C 892.4268336 197 834 189.164984 834 179.5 Z" stroke-miterlimit="10" stroke-dasharray=""/></g><g><g><path fill="none" stroke="none"/><text fill="#000000" stroke="none" font-family="Arial" font-size="13px" font-style="normal" font-weight="bold" text-decoration="undefined" x="1050.5" y="258.5" text-anchor="middle" dominant-baseline="central" transform="matrix(1 0 0 1 -86 -78)">Consultar Status do Boletim</text></g></g><g><path fill="none" stroke="#000000" paint-order="fill stroke markers" d=" M 861 198 L 642 238" stroke-miterlimit="10" stroke-dasharray="3"/></g><g><path fill="none" stroke="#000000" paint-order="fill stroke markers" d=" M 651.2409368585295 232.03300025333738 L 642 238 L 652.7536351013864 240.31502313297932" stroke-miterlimit="10" stroke-dasharray=""/></g><g><rect fill="#ffffff" stroke="none" x="816" y="319" width="53.49169921875" height="13" transform="matrix(1 0 0 1 -86 -78)"/></g><g><g><path fill="none" stroke="none"/><text fill="#000000" stroke="none" font-family="Arial" font-size="13px" font-style="normal" font-weight="normal" text-decoration="undefined" x="842.745849609375" y="325.5" text-anchor="middle" dominant-baseline="central" transform="matrix(1 0 0 1 -86 -78)">«extend»</text></g></g><g><path fill="#C0C0C0" stroke="none" paint-order="stroke fill markers" d=" M 841 266.5 C 841 256.835016 905.6948464 249 985.5 249 C 1065.3051536 249 1130 256.835016 1130 266.5 C 1130 276.164984 1065.3051536 284 985.5 284 C 905.6948464 284 841 276.164984 841 266.5 Z" fill-opacity="0.2"/></g><g><path fill="#ffffff" stroke="none" paint-order="stroke fill markers" d=" M 834 259.5 C 834 249.835016 898.6948464 242 978.5 242 C 1058.3051536 242 1123 249.835016 1123 259.5 C 1123 269.164984 1058.3051536 277 978.5 277 C 898.6948464 277 834 269.164984 834 259.5 Z"/></g><g><path fill="none" stroke="#000000" paint-order="fill stroke markers" d=" M 834 259.5 C 834 249.835016 898.6948464 242 978.5 242 C 1058.3051536 242 1123 249.835016 1123 259.5 C 1123 269.164984 1058.3051536 277 978.5 277 C 898.6948464 277 834 269.164984 834 259.5 Z" stroke-miterlimit="10" stroke-dasharray=""/></g><g><g><path fill="none" stroke="none"/><text fill="#000000" stroke="none" font-family="Arial" font-size="13px" font-style="normal" font-weight="bold" text-decoration="undefined" x="1064.5" y="338.5" text-anchor="middle" dominant-baseline="central" transform="matrix(1 0 0 1 -86 -78)">Gerar Relatório sobre o boletim</text></g></g><g><path fill="none" stroke="#000000" paint-order="fill stroke markers" d=" M 833 257 L 642 255" stroke-miterlimit="10" stroke-dasharray="3"/></g><g><path fill="none" stroke="#000000" paint-order="fill stroke markers" d=" M 652.2061940581445 250.89712261364122 L 642 255 L 652.1180414508912 259.31569660634864" stroke-miterlimit="10" stroke-dasharray=""/></g><g><rect fill="#ffffff" stroke="none" x="796" y="357" width="53.49169921875" height="13" transform="matrix(1 0 0 1 -86 -78)"/></g><g><g><path fill="none" stroke="none"/><text fill="#000000" stroke="none" font-family="Arial" font-size="13px" font-style="normal" font-weight="normal" text-decoration="undefined" x="822.745849609375" y="363.5" text-anchor="middle" dominant-baseline="central" transform="matrix(1 0 0 1 -86 -78)">«extend»</text></g></g><g><path fill="#C0C0C0" stroke="none" paint-order="stroke fill markers" d=" M 889 362.5 C 889 352.835016 953.2471312 345 1032.5 345 C 1111.7528688 345 1176 352.835016 1176 362.5 C 1176 372.164984 1111.7528688 380 1032.5 380 C 953.2471312 380 889 372.164984 889 362.5 Z" fill-opacity="0.2"/></g><g><path fill="#ffffff" stroke="none" paint-order="stroke fill markers" d=" M 882 355.5 C 882 345.835016 946.2471312 338 1025.5 338 C 1104.7528688 338 1169 345.835016 1169 355.5 C 1169 365.164984 1104.7528688 373 1025.5 373 C 946.2471312 373 882 365.164984 882 355.5 Z"/></g><g><path fill="none" stroke="#000000" paint-order="fill stroke markers" d=" M 882 355.5 C 882 345.835016 946.2471312 338 1025.5 338 C 1104.7528688 338 1169 345.835016 1169 355.5 C 1169 365.164984 1104.7528688 373 1025.5 373 C 946.2471312 373 882 365.164984 882 355.5 Z" stroke-miterlimit="10" stroke-dasharray=""/></g><g><g><path fill="none" stroke="none"/><text fill="#000000" stroke="none" font-family="Arial" font-size="13px" font-style="normal" font-weight="bold" text-decoration="undefined" x="1111.5" y="434.5" text-anchor="middle" dominant-baseline="central" transform="matrix(1 0 0 1 -86 -78)">Notificar nivel de bateria crítico</text></g></g><g><path fill="none" stroke="#000000" paint-order="fill stroke markers" d=" M 620 401 L 881 371" stroke-miterlimit="10" stroke-dasharray="3"/></g><g><path fill="none" stroke="#000000" paint-order="fill stroke markers" d=" M 871.3844883683757 376.3424653543189 L 881 371 L 870.4231130404072 367.9785000009934" stroke-miterlimit="10" stroke-dasharray=""/></g><g><rect fill="#ffffff" stroke="none" x="805" y="428" width="55.65625" height="13" transform="matrix(1 0 0 1 -86 -78)"/></g><g><g><path fill="none" stroke="none"/><text fill="#000000" stroke="none" font-family="Arial" font-size="13px" font-style="normal" font-weight="normal" text-decoration="undefined" x="832.828125" y="434.5" text-anchor="middle" dominant-baseline="central" transform="matrix(1 0 0 1 -86 -78)">«include»</text></g></g><g><path fill="#C0C0C0" stroke="none" paint-order="stroke fill markers" d=" M 825 449 C 825 431.3268864 910.7374608 417 1016.5 417 C 1122.2625392 417 1208 431.3268864 1208 449 C 1208 466.67311359999997 1122.2625392 481 1016.5 481 C 910.7374608 481 825 466.67311359999997 825 449 Z" fill-opacity="0.2"/></g><g><path fill="#ffffff" stroke="none" paint-order="stroke fill markers" d=" M 818 442 C 818 424.3268864 903.7374608 410 1009.5 410 C 1115.2625392 410 1201 424.3268864 1201 442 C 1201 459.67311359999997 1115.2625392 474 1009.5 474 C 903.7374608 474 818 459.67311359999997 818 442 Z"/></g><g><path fill="none" stroke="#000000" paint-order="fill stroke markers" d=" M 818 442 C 818 424.3268864 903.7374608 410 1009.5 410 C 1115.2625392 410 1201 424.3268864 1201 442 C 1201 459.67311359999997 1115.2625392 474 1009.5 474 C 903.7374608 474 818 459.67311359999997 818 442 Z" stroke-miterlimit="10" stroke-dasharray=""/></g><g><g><path fill="none" stroke="none"/><text fill="#000000" stroke="none" font-family="Arial" font-size="13px" font-style="normal" font-weight="bold" text-decoration="undefined" x="1095.5" y="521" text-anchor="middle" dominant-baseline="central" transform="matrix(1 0 0 1 -86 -78)">Compartilhar localização com autoridades</text></g></g><g><path fill="none" stroke="#000000" paint-order="fill stroke markers" d=" M 817 429 L 620 416" stroke-miterlimit="10" stroke-dasharray="3"/></g><g><path fill="none" stroke="#000000" paint-order="fill stroke markers" d=" M 630.4178019411505 412.4687958548166 L 620 416 L 629.8634367944592 420.86956000083273" stroke-miterlimit="10" stroke-dasharray=""/></g><g><rect fill="#ffffff" stroke="none" x="776" y="523" width="53.49169921875" height="13" transform="matrix(1 0 0 1 -86 -78)"/></g><g><g><path fill="none" stroke="none"/><text fill="#000000" stroke="none" font-family="Arial" font-size="13px" font-style="normal" font-weight="normal" text-decoration="undefined" x="802.745849609375" y="529.5" text-anchor="middle" dominant-baseline="central" transform="matrix(1 0 0 1 -86 -78)">«extend»</text></g></g><g><path fill="#C0C0C0" stroke="none" paint-order="stroke fill markers" d=" M 897 541 C 897 525.5360256 952.0689696 513 1020 513 C 1087.9310304 513 1143 525.5360256 1143 541 C 1143 556.4639744 1087.9310304 569 1020 569 C 952.0689696 569 897 556.4639744 897 541 Z" fill-opacity="0.2"/></g><g><path fill="#ffffff" stroke="none" paint-order="stroke fill markers" d=" M 890 534 C 890 518.5360256 945.0689696 506 1013 506 C 1080.9310304 506 1136 518.5360256 1136 534 C 1136 549.4639744 1080.9310304 562 1013 562 C 945.0689696 562 890 549.4639744 890 534 Z"/></g><g><path fill="none" stroke="#000000" paint-order="fill stroke markers" d=" M 890 534 C 890 518.5360256 945.0689696 506 1013 506 C 1080.9310304 506 1136 518.5360256 1136 534 C 1136 549.4639744 1080.9310304 562 1013 562 C 945.0689696 562 890 549.4639744 890 534 Z" stroke-miterlimit="10" stroke-dasharray=""/></g><g><g><path fill="none" stroke="none"/><text fill="#000000" stroke="none" font-family="Arial" font-size="13px" font-style="normal" font-weight="bold" text-decoration="undefined" x="1099" y="613" text-anchor="middle" dominant-baseline="central" transform="matrix(1 0 0 1 -86 -78)">Apagar dados do aparelho</text></g></g><g><path fill="none" stroke="#000000" paint-order="fill stroke markers" d=" M 889 532 L 681 528" stroke-miterlimit="10" stroke-dasharray="3"/></g><g><path fill="none" stroke="#000000" paint-order="fill stroke markers" d=" M 691.2417334855588 523.9866603419617 L 681 528 L 691.0798588861477 532.4041395113403" stroke-miterlimit="10" stroke-dasharray=""/></g><g><rect fill="#ffffff" stroke="none" x="844" y="631" width="53.49169921875" height="13" transform="matrix(1 0 0 1 -86 -78)"/></g><g><g><path fill="none" stroke="none"/><text fill="#000000" stroke="none" font-family="Arial" font-size="13px" font-style="normal" font-weight="normal" text-decoration="undefined" x="870.745849609375" y="637.5" text-anchor="middle" dominant-baseline="central" transform="matrix(1 0 0 1 -86 -78)">«extend»</text></g></g><g><path fill="#C0C0C0" stroke="none" paint-order="stroke fill markers" d=" M 929 634.5 C 929 624.835016 970.8613711999999 617 1022.5 617 C 1074.1386288 617 1116 624.835016 1116 634.5 C 1116 644.164984 1074.1386288 652 1022.5 652 C 970.8613711999999 652 929 644.164984 929 634.5 Z" fill-opacity="0.2"/></g><g><path fill="#ffffff" stroke="none" paint-order="stroke fill markers" d=" M 922 627.5 C 922 617.835016 963.8613711999999 610 1015.5 610 C 1067.1386288 610 1109 617.835016 1109 627.5 C 1109 637.164984 1067.1386288 645 1015.5 645 C 963.8613711999999 645 922 637.164984 922 627.5 Z"/></g><g><path fill="none" stroke="#000000" paint-order="fill stroke markers" d=" M 922 627.5 C 922 617.835016 963.8613711999999 610 1015.5 610 C 1067.1386288 610 1109 617.835016 1109 627.5 C 1109 637.164984 1067.1386288 645 1015.5 645 C 963.8613711999999 645 922 637.164984 922 627.5 Z" stroke-miterlimit="10" stroke-dasharray=""/></g><g><g><path fill="none" stroke="none"/><text fill="#000000" stroke="none" font-family="Arial" font-size="13px" font-style="normal" font-weight="bold" text-decoration="undefined" x="1101.5" y="706.5" text-anchor="middle" dominant-baseline="central" transform="matrix(1 0 0 1 -86 -78)">Emitir alerta sonoro</text></g></g><g><path fill="none" stroke="#000000" paint-order="fill stroke markers" d=" M 931 609 L 681 556" stroke-miterlimit="10" stroke-dasharray="3"/></g><g><path fill="none" stroke="#000000" paint-order="fill stroke markers" d=" M 691.8147348780509 553.9896494043403 L 681 556 L 690.0687049077578 562.2256398302511" stroke-miterlimit="10" stroke-dasharray=""/></g><g><rect fill="#ffffff" stroke="none" x="859" y="683" width="53.49169921875" height="13" transform="matrix(1 0 0 1 -86 -78)"/></g><g><g><path fill="none" stroke="none"/><text fill="#000000" stroke="none" font-family="Arial" font-size="13px" font-style="normal" font-weight="normal" text-decoration="undefined" x="885.745849609375" y="689.5" text-anchor="middle" dominant-baseline="central" transform="matrix(1 0 0 1 -86 -78)">«extend»</text></g></g><g><path fill="#C0C0C0" stroke="none" paint-order="stroke fill markers" d=" M 953 802.5 C 953 792.835016 987.697928 785 1030.5 785 C 1073.302072 785 1108 792.835016 1108 802.5 C 1108 812.164984 1073.302072 820 1030.5 820 C 987.697928 820 953 812.164984 953 802.5 Z" fill-opacity="0.2"/></g><g><path fill="#ffffff" stroke="none" paint-order="stroke fill markers" d=" M 946 795.5 C 946 785.835016 980.697928 778 1023.5 778 C 1066.302072 778 1101 785.835016 1101 795.5 C 1101 805.164984 1066.302072 813 1023.5 813 C 980.697928 813 946 805.164984 946 795.5 Z"/></g><g><path fill="none" stroke="#000000" paint-order="fill stroke markers" d=" M 946 795.5 C 946 785.835016 980.697928 778 1023.5 778 C 1066.302072 778 1101 785.835016 1101 795.5 C 1101 805.164984 1066.302072 813 1023.5 813 C 980.697928 813 946 805.164984 946 795.5 Z" stroke-miterlimit="10" stroke-dasharray=""/></g><g><g><path fill="none" stroke="none"/><text fill="#000000" stroke="none" font-family="Arial" font-size="13px" font-style="normal" font-weight="bold" text-decoration="undefined" x="1109.5" y="874.5" text-anchor="middle" dominant-baseline="central" transform="matrix(1 0 0 1 -86 -78)">Enviar via Email</text></g></g><g><path fill="none" stroke="#000000" paint-order="fill stroke markers" d=" M 945 795 L 779 794" stroke-miterlimit="10" stroke-dasharray="3"/></g><g><path fill="none" stroke="#000000" paint-order="fill stroke markers" d=" M 789.1878485428267 789.8517784451136 L 779 794 L 789.1371323816586 798.2706611990099" stroke-miterlimit="10" stroke-dasharray=""/></g><g><rect fill="#ffffff" stroke="none" x="921" y="896" width="53.49169921875" height="13" transform="matrix(1 0 0 1 -86 -78)"/></g><g><g><path fill="none" stroke="none"/><text fill="#000000" stroke="none" font-family="Arial" font-size="13px" font-style="normal" font-weight="normal" text-decoration="undefined" x="947.745849609375" y="902.5" text-anchor="middle" dominant-baseline="central" transform="matrix(1 0 0 1 -86 -78)">«extend»</text></g></g><g><path fill="#C0C0C0" stroke="none" paint-order="stroke fill markers" d=" M 873 1026.5 C 873 1007.9984592000001 939.4857072 993 1021.5 993 C 1103.5142928 993 1170 1007.9984592000001 1170 1026.5 C 1170 1045.0015408 1103.5142928 1060 1021.5 1060 C 939.4857072 1060 873 1045.0015408 873 1026.5 Z" fill-opacity="0.2"/></g><g><path fill="#ffffff" stroke="none" paint-order="stroke fill markers" d=" M 866 1019.5 C 866 1000.9984592000001 932.4857072 986 1014.5 986 C 1096.5142928 986 1163 1000.9984592000001 1163 1019.5 C 1163 1038.0015408 1096.5142928 1053 1014.5 1053 C 932.4857072 1053 866 1038.0015408 866 1019.5 Z"/></g><g><path fill="none" stroke="#000000" paint-order="fill stroke markers" d=" M 866 1019.5 C 866 1000.9984592000001 932.4857072 986 1014.5 986 C 1096.5142928 986 1163 1000.9984592000001 1163 1019.5 C 1163 1038.0015408 1096.5142928 1053 1014.5 1053 C 932.4857072 1053 866 1038.0015408 866 1019.5 Z" stroke-miterlimit="10" stroke-dasharray=""/></g><g><g><path fill="none" stroke="none"/><text fill="#000000" stroke="none" font-family="Arial" font-size="13px" font-style="normal" font-weight="bold" text-decoration="undefined" x="1100.5" y="1098.5" text-anchor="middle" dominant-baseline="central" transform="matrix(1 0 0 1 -86 -78)">Definir dispositivio de confiança</text></g></g><g><path fill="none" stroke="#000000" paint-order="fill stroke markers" d=" M 865 1018 L 567 1016" stroke-miterlimit="10" stroke-dasharray="3"/></g><g><path fill="none" stroke="#000000" paint-order="fill stroke markers" d=" M 577.1906971473611 1011.85878138095 L 567 1016 L 577.1341948258238 1020.277627290011" stroke-miterlimit="10" stroke-dasharray=""/></g><g><rect fill="#ffffff" stroke="none" x="775" y="1118" width="53.49169921875" height="13" transform="matrix(1 0 0 1 -86 -78)"/></g><g><g><path fill="none" stroke="none"/><text fill="#000000" stroke="none" font-family="Arial" font-size="13px" font-style="normal" font-weight="normal" text-decoration="undefined" x="801.745849609375" y="1124.5" text-anchor="middle" dominant-baseline="central" transform="matrix(1 0 0 1 -86 -78)">«extend»</text></g></g><g><path fill="none" stroke="#000000" paint-order="fill stroke markers" d=" M 1393 245 L 1017 150" stroke-miterlimit="10" stroke-dasharray=""/></g><g><path fill="none" stroke="#000000" paint-order="fill stroke markers" d=" M 1393 288 L 1091 409" stroke-miterlimit="10" stroke-dasharray=""/></g><g><path fill="none" stroke="#000000" paint-order="fill stroke markers" d=" M 906 692 L 1345 684" stroke-miterlimit="10" stroke-dasharray=""/></g></g></svg>