<svg version="1.1" xmlns="http://www.w3.org/2000/svg" xmlns:xlink="http://www.w3.org/1999/xlink" width="1501" height="1004"><defs/><g><g><rect fill="#C0C0C0" stroke="none" x="295" y="151" width="1112" height="984" transform="matrix(1 0 0 1 -70 -134)" fill-opacity="0.2"/></g><g><rect fill="#ffffff" stroke="none" x="288" y="144" width="1112" height="984" transform="matrix(1 0 0 1 -70 -134)"/></g><g><path fill="none" stroke="#000000" paint-order="fill stroke markers" d=" M 218 10 L 1330 10 L 1330 994 L 218 994 L 218 10 Z Z" stroke-miterlimit="10" stroke-dasharray=""/></g><g><g><path fill="none" stroke="none"/><text fill="#000000" stroke="none" font-family="Arial" font-size="13px" font-style="normal" font-weight="bold" text-decoration="undefined" x="844.5" y="157.5" text-anchor="middle" dominant-baseline="central" transform="matrix(1 0 0 1 -70 -134)">Celular Seguro</text></g></g><g><path fill="#ffffff" stroke="none" paint-order="stroke fill markers" d=" M 52.44436363636365 333.53 C 52.44436363636365 318.87788425599996 63.88601048203637 307 78 307 C 92.11398951796363 307 103.55563636363635 318.87788425599996 103.55563636363635 333.53 C 103.55563636363635 348.182115744 92.11398951796363 360.06 78 360.06 C 63.88601048203637 360.06 52.44436363636365 348.182115744 52.44436363636365 333.53 Z"/></g><g><path fill="none" stroke="#000000" paint-order="fill stroke markers" d=" M 52.44436363636365 333.53 C 52.44436363636365 318.87788425599996 63.88601048203637 307 78 307 C 92.11398951796363 307 103.55563636363635 318.87788425599996 103.55563636363635 333.53 C 103.55563636363635 348.182115744 92.11398951796363 360.06 78 360.06 C 63.88601048203637 360.06 52.44436363636365 348.182115744 52.44436363636365 333.53 Z" stroke-miterlimit="10" stroke-dasharray=""/></g><g><path fill="none" stroke="#000000" paint-order="fill stroke markers" d=" M 78 360.06 L 78 410.94000000000005" stroke-miterlimit="10" stroke-dasharray=""/></g><g><path fill="none" stroke="#000000" paint-order="fill stroke markers" d=" M 50.94109090909092 379.14 L 105.05890909090908 379.14" stroke-miterlimit="10" stroke-dasharray=""/></g><g><path fill="none" stroke="#000000" paint-order="fill stroke markers" d=" M 78 410.94000000000005 L 40.418181818181836 464" stroke-miterlimit="10" stroke-dasharray=""/></g><g><path fill="none" stroke="#000000" paint-order="fill stroke markers" d=" M 78 410.94000000000005 L 115.58181818181816 464" stroke-miterlimit="10" stroke-dasharray=""/></g><g><g><path fill="none" stroke="none"/><text fill="#000000" stroke="none" font-family="Arial" font-size="13px" font-style="normal" font-weight="bold" text-decoration="undefined" x="148.5" y="612.5" text-anchor="middle" dominant-baseline="central" transform="matrix(1 0 0 1 -70 -134)">Usuário</text></g></g><g><path fill="#C0C0C0" stroke="none" paint-order="stroke fill markers" d=" M 385 297 C 385 274.908608 422.6080768 257 469 257 C 515.3919232 257 553 274.908608 553 297 C 553 319.091392 515.3919232 337 469 337 C 422.6080768 337 385 319.091392 385 297 Z" fill-opacity="0.2"/></g><g><path fill="#ffffff" stroke="none" paint-order="stroke fill markers" d=" M 378 290 C 378 267.908608 415.6080768 250 462 250 C 508.39192319999995 250 546 267.908608 546 290 C 546 312.091392 508.39192319999995 330 462 330 C 415.6080768 330 378 312.091392 378 290 Z"/></g><g><path fill="none" stroke="#000000" paint-order="fill stroke markers" d=" M 378 290 C 378 267.908608 415.6080768 250 462 250 C 508.39192319999995 250 546 267.908608 546 290 C 546 312.091392 508.39192319999995 330 462 330 C 415.6080768 330 378 312.091392 378 290 Z" stroke-miterlimit="10" stroke-dasharray=""/></g><g><g><path fill="none" stroke="none"/><text fill="#000000" stroke="none" font-family="Arial" font-size="13px" font-style="normal" font-weight="bold" text-decoration="undefined" x="532" y="425" text-anchor="middle" dominant-baseline="central" transform="matrix(1 0 0 1 -70 -134)">Registrar boletim</text></g></g><g><path fill="#C0C0C0" stroke="none" paint-order="stroke fill markers" d=" M 465 461 C 465 441.11774720000005 501.0410736 425 545.5 425 C 589.9589264 425 626 441.11774720000005 626 461 C 626 480.88225279999995 589.9589264 497 545.5 497 C 501.0410736 497 465 480.88225279999995 465 461 Z" fill-opacity="0.2"/></g><g><path fill="#ffffff" stroke="none" paint-order="stroke fill markers" d=" M 458 454 C 458 434.11774720000005 494.0410736 418 538.5 418 C 582.9589264 418 619 434.11774720000005 619 454 C 619 473.88225279999995 582.9589264 490 538.5 490 C 494.0410736 490 458 473.88225279999995 458 454 Z"/></g><g><path fill="none" stroke="#000000" paint-order="fill stroke markers" d=" M 458 454 C 458 434.11774720000005 494.0410736 418 538.5 418 C 582.9589264 418 619 434.11774720000005 619 454 C 619 473.88225279999995 582.9589264 490 538.5 490 C 494.0410736 490 458 473.88225279999995 458 454 Z" stroke-miterlimit="10" stroke-dasharray=""/></g><g><g><path fill="none" stroke="none"/><text fill="#000000" stroke="none" font-family="Arial" font-size="13px" font-style="normal" font-weight="bold" text-decoration="undefined" x="608.5" y="589" text-anchor="middle" dominant-baseline="central" transform="matrix(1 0 0 1 -70 -134)">Localizar Celular</text></g></g><g><path fill="#C0C0C0" stroke="none" paint-order="stroke fill markers" d=" M 417 670.5 C 417 645.3710416 478.78469759999996 625 555 625 C 631.2153024 625 693 645.3710416 693 670.5 C 693 695.6289584 631.2153024 716 555 716 C 478.78469759999996 716 417 695.6289584 417 670.5 Z" fill-opacity="0.2"/></g><g><path fill="#ffffff" stroke="none" paint-order="stroke fill markers" d=" M 410 663.5 C 410 638.3710416 471.78469759999996 618 548 618 C 624.2153024 618 686 638.3710416 686 663.5 C 686 688.6289584 624.2153024 709 548 709 C 471.78469759999996 709 410 688.6289584 410 663.5 Z"/></g><g><path fill="none" stroke="#000000" paint-order="fill stroke markers" d=" M 410 663.5 C 410 638.3710416 471.78469759999996 618 548 618 C 624.2153024 618 686 638.3710416 686 663.5 C 686 688.6289584 624.2153024 709 548 709 C 471.78469759999996 709 410 688.6289584 410 663.5 Z" stroke-miterlimit="10" stroke-dasharray=""/></g><g><g><path fill="none" stroke="none"/><text fill="#000000" stroke="none" font-family="Arial" font-size="13px" font-style="normal" font-weight="bold" text-decoration="undefined" x="618" y="798.5" text-anchor="middle" dominant-baseline="central" transform="matrix(1 0 0 1 -70 -134)">Bloqueio remoto do aparelho</text></g></g><g><path fill="#C0C0C0" stroke="none" paint-order="stroke fill markers" d=" M 833 545 C 833 522.908608 917.1704576 505 1021 505 C 1124.8295424 505 1209 522.908608 1209 545 C 1209 567.091392 1124.8295424 585 1021 585 C 917.1704576 585 833 567.091392 833 545 Z" fill-opacity="0.2"/></g><g><path fill="#ffffff" stroke="none" paint-order="stroke fill markers" d=" M 826 538 C 826 515.908608 910.1704576 498 1014 498 C 1117.8295424 498 1202 515.908608 1202 538 C 1202 560.091392 1117.8295424 578 1014 578 C 910.1704576 578 826 560.091392 826 538 Z"/></g><g><path fill="none" stroke="#000000" paint-order="fill stroke markers" d=" M 826 538 C 826 515.908608 910.1704576 498 1014 498 C 1117.8295424 498 1202 515.908608 1202 538 C 1202 560.091392 1117.8295424 578 1014 578 C 910.1704576 578 826 560.091392 826 538 Z" stroke-miterlimit="10" stroke-dasharray=""/></g><g><g><path fill="none" stroke="none"/><text fill="#000000" stroke="none" font-family="Arial" font-size="13px" font-style="normal" font-weight="bold" text-decoration="undefined" x="1084" y="673" text-anchor="middle" dominant-baseline="central" transform="matrix(1 0 0 1 -70 -134)">Compartilha localização com autoridades</text></g></g><g><path fill="#C0C0C0" stroke="none" paint-order="stroke fill markers" d=" M 897 669 C 897 649.1177472 952.0689696 633 1020 633 C 1087.9310304 633 1143 649.1177472 1143 669 C 1143 688.8822528 1087.9310304 705 1020 705 C 952.0689696 705 897 688.8822528 897 669 Z" fill-opacity="0.2"/></g><g><path fill="#ffffff" stroke="none" paint-order="stroke fill markers" d=" M 890 662 C 890 642.1177472 945.0689696 626 1013 626 C 1080.9310304 626 1136 642.1177472 1136 662 C 1136 681.8822528 1080.9310304 698 1013 698 C 945.0689696 698 890 681.8822528 890 662 Z"/></g><g><path fill="none" stroke="#000000" paint-order="fill stroke markers" d=" M 890 662 C 890 642.1177472 945.0689696 626 1013 626 C 1080.9310304 626 1136 642.1177472 1136 662 C 1136 681.8822528 1080.9310304 698 1013 698 C 945.0689696 698 890 681.8822528 890 662 Z" stroke-miterlimit="10" stroke-dasharray=""/></g><g><g><path fill="none" stroke="none"/><text fill="#000000" stroke="none" font-family="Arial" font-size="13px" font-style="normal" font-weight="bold" text-decoration="undefined" x="1083" y="797" text-anchor="middle" dominant-baseline="central" transform="matrix(1 0 0 1 -70 -134)">Apagar dados do aparelho</text></g></g><g><path fill="#ffffff" stroke="none" paint-order="stroke fill markers" d=" M 1424.1592727272728 285.37 C 1424.1592727272728 275.224528224 1432.1468375063273 267 1442 267 C 1451.8531624936727 267 1459.8407272727272 275.224528224 1459.8407272727272 285.37 C 1459.8407272727272 295.515471776 1451.8531624936727 303.74 1442 303.74 C 1432.1468375063273 303.74 1424.1592727272728 295.515471776 1424.1592727272728 285.37 Z"/></g><g><path fill="none" stroke="#000000" paint-order="fill stroke markers" d=" M 1424.1592727272728 285.37 C 1424.1592727272728 275.224528224 1432.1468375063273 267 1442 267 C 1451.8531624936727 267 1459.8407272727272 275.224528224 1459.8407272727272 285.37 C 1459.8407272727272 295.515471776 1451.8531624936727 303.74 1442 303.74 C 1432.1468375063273 303.74 1424.1592727272728 295.515471776 1424.1592727272728 285.37 Z" stroke-miterlimit="10" stroke-dasharray=""/></g><g><path fill="none" stroke="#000000" paint-order="fill stroke markers" d=" M 1442 303.74 L 1442 339.26" stroke-miterlimit="10" stroke-dasharray=""/></g><g><path fill="none" stroke="#000000" paint-order="fill stroke markers" d=" M 1423.1098181818181 317.06 L 1460.8901818181819 317.06" stroke-miterlimit="10" stroke-dasharray=""/></g><g><path fill="none" stroke="#000000" paint-order="fill stroke markers" d=" M 1442 339.26 L 1415.7636363636364 376" stroke-miterlimit="10" stroke-dasharray=""/></g><g><path fill="none" stroke="#000000" paint-order="fill stroke markers" d=" M 1442 339.26 L 1468.2363636363636 376" stroke-miterlimit="10" stroke-dasharray=""/></g><g><g><path fill="none" stroke="none"/><text fill="#000000" stroke="none" font-family="Arial" font-size="13px" font-style="normal" font-weight="bold" text-decoration="undefined" x="1512.5" y="524.5" text-anchor="middle" dominant-baseline="central" transform="matrix(1 0 0 1 -70 -134)">Polícia</text></g></g><g><path fill="none" stroke="#000000" paint-order="fill stroke markers" d=" M 147 379 L 377 314" stroke-miterlimit="10" stroke-dasharray=""/></g><g><path fill="#C0C0C0" stroke="none" paint-order="stroke fill markers" d=" M 977 173 C 977 153.1177472 1021.9953776 137 1077.5 137 C 1133.0046224 137 1178 153.1177472 1178 173 C 1178 192.8822528 1133.0046224 209 1077.5 209 C 1021.9953776 209 977 192.8822528 977 173 Z" fill-opacity="0.2"/></g><g><path fill="#ffffff" stroke="none" paint-order="stroke fill markers" d=" M 970 166 C 970 146.1177472 1014.9953776 130 1070.5 130 C 1126.0046224 130 1171 146.1177472 1171 166 C 1171 185.8822528 1126.0046224 202 1070.5 202 C 1014.9953776 202 970 185.8822528 970 166 Z"/></g><g><path fill="none" stroke="#000000" paint-order="fill stroke markers" d=" M 970 166 C 970 146.1177472 1014.9953776 130 1070.5 130 C 1126.0046224 130 1171 146.1177472 1171 166 C 1171 185.8822528 1126.0046224 202 1070.5 202 C 1014.9953776 202 970 185.8822528 970 166 Z" stroke-miterlimit="10" stroke-dasharray=""/></g><g><g><path fill="none" stroke="none"/><text fill="#000000" stroke="none" font-family="Arial" font-size="13px" font-style="normal" font-weight="bold" text-decoration="undefined" x="1140.5" y="301" text-anchor="middle" dominant-baseline="central" transform="matrix(1 0 0 1 -70 -134)">Notificar Autoridades</text></g></g><g><path fill="none" stroke="#000000" paint-order="fill stroke markers" d=" M 1152 203 L 1393 312" stroke-miterlimit="10" stroke-dasharray=""/></g><g><path fill="none" stroke="#000000" paint-order="fill stroke markers" d=" M 547 273 L 969 187" stroke-miterlimit="10" stroke-dasharray="3"/></g><g><path fill="none" stroke="#000000" paint-order="fill stroke markers" d=" M 959.8825904029125 193.1540915039456 L 969 187 L 958.2014180125616 184.90461768152653" stroke-miterlimit="10" stroke-dasharray=""/></g><g><rect fill="#ffffff" stroke="none" x="795" y="328" width="55.65625" height="13" transform="matrix(1 0 0 1 -70 -134)"/></g><g><g><path fill="none" stroke="none"/><text fill="#000000" stroke="none" font-family="Arial" font-size="13px" font-style="normal" font-weight="normal" text-decoration="undefined" x="822.828125" y="334.5" text-anchor="middle" dominant-baseline="central" transform="matrix(1 0 0 1 -70 -134)">«include»</text></g></g><g><path fill="#C0C0C0" stroke="none" paint-order="stroke fill markers" d=" M 921 257 C 921 239.32688639999998 979.4268336 225 1051.5 225 C 1123.5731664 225 1182 239.32688639999998 1182 257 C 1182 274.6731136 1123.5731664 289 1051.5 289 C 979.4268336 289 921 274.6731136 921 257 Z" fill-opacity="0.2"/></g><g><path fill="#ffffff" stroke="none" paint-order="stroke fill markers" d=" M 914 250 C 914 232.32688639999998 972.4268336 218 1044.5 218 C 1116.5731664 218 1175 232.32688639999998 1175 250 C 1175 267.6731136 1116.5731664 282 1044.5 282 C 972.4268336 282 914 267.6731136 914 250 Z"/></g><g><path fill="none" stroke="#000000" paint-order="fill stroke markers" d=" M 914 250 C 914 232.32688639999998 972.4268336 218 1044.5 218 C 1116.5731664 218 1175 232.32688639999998 1175 250 C 1175 267.6731136 1116.5731664 282 1044.5 282 C 972.4268336 282 914 267.6731136 914 250 Z" stroke-miterlimit="10" stroke-dasharray=""/></g><g><g><path fill="none" stroke="none"/><text fill="#000000" stroke="none" font-family="Arial" font-size="13px" font-style="normal" font-weight="bold" text-decoration="undefined" x="1114.5" y="385" text-anchor="middle" dominant-baseline="central" transform="matrix(1 0 0 1 -70 -134)">Consultar Status do Boletim</text></g></g><g><path fill="none" stroke="#000000" paint-order="fill stroke markers" d=" M 913 259 L 547 284" stroke-miterlimit="10" stroke-dasharray="3"/></g><g><path fill="none" stroke="#000000" paint-order="fill stroke markers" d=" M 556.8521825194517 279.10771018812153 L 547 284 L 557.425916370501 287.50717376748275" stroke-miterlimit="10" stroke-dasharray=""/></g><g><rect fill="#ffffff" stroke="none" x="776" y="428" width="53.49169921875" height="13" transform="matrix(1 0 0 1 -70 -134)"/></g><g><g><path fill="none" stroke="none"/><text fill="#000000" stroke="none" font-family="Arial" font-size="13px" font-style="normal" font-weight="normal" text-decoration="undefined" x="802.745849609375" y="434.5" text-anchor="middle" dominant-baseline="central" transform="matrix(1 0 0 1 -70 -134)">«extend»</text></g></g><g><path fill="#C0C0C0" stroke="none" paint-order="stroke fill markers" d=" M 913 346.5 C 913 327.9984592 977.6948464 313 1057.5 313 C 1137.3051536 313 1202 327.9984592 1202 346.5 C 1202 365.0015408 1137.3051536 380 1057.5 380 C 977.6948464 380 913 365.0015408 913 346.5 Z" fill-opacity="0.2"/></g><g><path fill="#ffffff" stroke="none" paint-order="stroke fill markers" d=" M 906 339.5 C 906 320.9984592 970.6948464 306 1050.5 306 C 1130.3051536 306 1195 320.9984592 1195 339.5 C 1195 358.0015408 1130.3051536 373 1050.5 373 C 970.6948464 373 906 358.0015408 906 339.5 Z"/></g><g><path fill="none" stroke="#000000" paint-order="fill stroke markers" d=" M 906 339.5 C 906 320.9984592 970.6948464 306 1050.5 306 C 1130.3051536 306 1195 320.9984592 1195 339.5 C 1195 358.0015408 1130.3051536 373 1050.5 373 C 970.6948464 373 906 358.0015408 906 339.5 Z" stroke-miterlimit="10" stroke-dasharray=""/></g><g><g><path fill="none" stroke="none"/><text fill="#000000" stroke="none" font-family="Arial" font-size="13px" font-style="normal" font-weight="bold" text-decoration="undefined" x="1120.5" y="474.5" text-anchor="middle" dominant-baseline="central" transform="matrix(1 0 0 1 -70 -134)">Gerar Relatório sobre o boletim</text></g></g><g><path fill="none" stroke="#000000" paint-order="fill stroke markers" d=" M 905 327 L 547 297" stroke-miterlimit="10" stroke-dasharray="3"/></g><g><path fill="none" stroke="#000000" paint-order="fill stroke markers" d=" M 557.47870006704 293.65383130953995 L 547 297 L 556.7756584474423 302.04346130340554" stroke-miterlimit="10" stroke-dasharray=""/></g><g><rect fill="#ffffff" stroke="none" x="767" y="469" width="53.49169921875" height="13" transform="matrix(1 0 0 1 -70 -134)"/></g><g><g><path fill="none" stroke="none"/><text fill="#000000" stroke="none" font-family="Arial" font-size="13px" font-style="normal" font-weight="normal" text-decoration="undefined" x="793.745849609375" y="475.5" text-anchor="middle" dominant-baseline="central" transform="matrix(1 0 0 1 -70 -134)">«extend»</text></g></g><g><path fill="none" stroke="#000000" paint-order="fill stroke markers" d=" M 147 406 L 457 444" stroke-miterlimit="10" stroke-dasharray=""/></g><g><path fill="none" stroke="#000000" paint-order="fill stroke markers" d=" M 825 505 L 620 468" stroke-miterlimit="10" stroke-dasharray="3"/></g><g><path fill="none" stroke="#000000" paint-order="fill stroke markers" d=" M 630.7487693838907 465.6624892017504 L 620 468 L 629.2533974572985 473.9476579842204" stroke-miterlimit="10" stroke-dasharray=""/></g><g><rect fill="#ffffff" stroke="none" x="760" y="643" width="53.49169921875" height="13" transform="matrix(1 0 0 1 -70 -134)"/></g><g><g><path fill="none" stroke="none"/><text fill="#000000" stroke="none" font-family="Arial" font-size="13px" font-style="normal" font-weight="normal" text-decoration="undefined" x="786.745849609375" y="649.5" text-anchor="middle" dominant-baseline="central" transform="matrix(1 0 0 1 -70 -134)">«extend»</text></g></g><g><path fill="none" stroke="#000000" paint-order="fill stroke markers" d=" M 1100 497 L 1393 357" stroke-miterlimit="10" stroke-dasharray=""/></g><g><path fill="#C0C0C0" stroke="none" paint-order="stroke fill markers" d=" M 785 445 C 785 425.11774720000005 849.2471312 409 928.5 409 C 1007.7528688 409 1072 425.11774720000005 1072 445 C 1072 464.88225279999995 1007.7528688 481 928.5 481 C 849.2471312 481 785 464.88225279999995 785 445 Z" fill-opacity="0.2"/></g><g><path fill="#ffffff" stroke="none" paint-order="stroke fill markers" d=" M 778 438 C 778 418.11774720000005 842.2471312 402 921.5 402 C 1000.7528688 402 1065 418.11774720000005 1065 438 C 1065 457.88225279999995 1000.7528688 474 921.5 474 C 842.2471312 474 778 457.88225279999995 778 438 Z"/></g><g><path fill="none" stroke="#000000" paint-order="fill stroke markers" d=" M 778 438 C 778 418.11774720000005 842.2471312 402 921.5 402 C 1000.7528688 402 1065 418.11774720000005 1065 438 C 1065 457.88225279999995 1000.7528688 474 921.5 474 C 842.2471312 474 778 457.88225279999995 778 438 Z" stroke-miterlimit="10" stroke-dasharray=""/></g><g><g><path fill="none" stroke="none"/><text fill="#000000" stroke="none" font-family="Arial" font-size="13px" font-style="normal" font-weight="bold" text-decoration="undefined" x="991.5" y="573" text-anchor="middle" dominant-baseline="central" transform="matrix(1 0 0 1 -70 -134)">Notificar nível de bateria crítico</text></g></g><g><path fill="none" stroke="#000000" paint-order="fill stroke markers" d=" M 620 451 L 777 444" stroke-miterlimit="10" stroke-dasharray="3"/></g><g><path fill="none" stroke="#000000" paint-order="fill stroke markers" d=" M 767.0349105815674 448.65800310032535 L 777 444 L 766.6599121180678 440.247323276124" stroke-miterlimit="10" stroke-dasharray=""/></g><g><rect fill="#ffffff" stroke="none" x="739" y="545" width="55.65625" height="13" transform="matrix(1 0 0 1 -70 -134)"/></g><g><g><path fill="none" stroke="none"/><text fill="#000000" stroke="none" font-family="Arial" font-size="13px" font-style="normal" font-weight="normal" text-decoration="undefined" x="766.828125" y="551.5" text-anchor="middle" dominant-baseline="central" transform="matrix(1 0 0 1 -70 -134)">«include»</text></g></g><g><path fill="none" stroke="#000000" paint-order="fill stroke markers" d=" M 147 437 L 466 617" stroke-miterlimit="10" stroke-dasharray=""/></g><g><path fill="none" stroke="#000000" paint-order="fill stroke markers" d=" M 889 662 L 687 663" stroke-miterlimit="10" stroke-dasharray="3"/></g><g><path fill="none" stroke="#000000" paint-order="fill stroke markers" d=" M 697.1417113880785 658.7402241701095 L 687 663 L 697.1833892709973 667.159156519697" stroke-miterlimit="10" stroke-dasharray=""/></g><g><rect fill="#ffffff" stroke="none" x="832" y="819" width="53.49169921875" height="13" transform="matrix(1 0 0 1 -70 -134)"/></g><g><g><path fill="none" stroke="none"/><text fill="#000000" stroke="none" font-family="Arial" font-size="13px" font-style="normal" font-weight="normal" text-decoration="undefined" x="858.745849609375" y="825.5" text-anchor="middle" dominant-baseline="central" transform="matrix(1 0 0 1 -70 -134)">«extend»</text></g></g><g><path fill="#C0C0C0" stroke="none" paint-order="stroke fill markers" d=" M 953 797 C 953 777.1177472 994.8613711999999 761 1046.5 761 C 1098.1386288 761 1140 777.1177472 1140 797 C 1140 816.8822528 1098.1386288 833 1046.5 833 C 994.8613711999999 833 953 816.8822528 953 797 Z" fill-opacity="0.2"/></g><g><path fill="#ffffff" stroke="none" paint-order="stroke fill markers" d=" M 946 790 C 946 770.1177472 987.8613711999999 754 1039.5 754 C 1091.1386288 754 1133 770.1177472 1133 790 C 1133 809.8822528 1091.1386288 826 1039.5 826 C 987.8613711999999 826 946 809.8822528 946 790 Z"/></g><g><path fill="none" stroke="#000000" paint-order="fill stroke markers" d=" M 946 790 C 946 770.1177472 987.8613711999999 754 1039.5 754 C 1091.1386288 754 1133 770.1177472 1133 790 C 1133 809.8822528 1091.1386288 826 1039.5 826 C 987.8613711999999 826 946 809.8822528 946 790 Z" stroke-miterlimit="10" stroke-dasharray=""/></g><g><g><path fill="none" stroke="none"/><text fill="#000000" stroke="none" font-family="Arial" font-size="13px" font-style="normal" font-weight="bold" text-decoration="undefined" x="1109.5" y="925" text-anchor="middle" dominant-baseline="central" transform="matrix(1 0 0 1 -70 -134)">Emitir alerta sonoro</text></g></g><g><path fill="none" stroke="#000000" paint-order="fill stroke markers" d=" M 945 766 L 687 699" stroke-miterlimit="10" stroke-dasharray="3"/></g><g><path fill="none" stroke="#000000" paint-order="fill stroke markers" d=" M 697.894481587819 697.4800424569507 L 687 699 L 695.7783340940646 705.6287895224531" stroke-miterlimit="10" stroke-dasharray=""/></g><g><rect fill="#ffffff" stroke="none" x="852" y="889" width="53.49169921875" height="13" transform="matrix(1 0 0 1 -70 -134)"/></g><g><g><path fill="none" stroke="none"/><text fill="#000000" stroke="none" font-family="Arial" font-size="13px" font-style="normal" font-weight="normal" text-decoration="undefined" x="878.745849609375" y="895.5" text-anchor="middle" dominant-baseline="central" transform="matrix(1 0 0 1 -70 -134)">«extend»</text></g></g><g><path fill="#C0C0C0" stroke="none" paint-order="stroke fill markers" d=" M 401 913 C 401 890.908608 458.5314032 873 529.5 873 C 600.4685968 873 658 890.908608 658 913 C 658 935.091392 600.4685968 953 529.5 953 C 458.5314032 953 401 935.091392 401 913 Z" fill-opacity="0.2"/></g><g><path fill="#ffffff" stroke="none" paint-order="stroke fill markers" d=" M 394 906 C 394 883.908608 451.5314032 866 522.5 866 C 593.4685968 866 651 883.908608 651 906 C 651 928.091392 593.4685968 946 522.5 946 C 451.5314032 946 394 928.091392 394 906 Z"/></g><g><path fill="none" stroke="#000000" paint-order="fill stroke markers" d=" M 394 906 C 394 883.908608 451.5314032 866 522.5 866 C 593.4685968 866 651 883.908608 651 906 C 651 928.091392 593.4685968 946 522.5 946 C 451.5314032 946 394 928.091392 394 906 Z" stroke-miterlimit="10" stroke-dasharray=""/></g><g><g><path fill="none" stroke="none"/><text fill="#000000" stroke="none" font-family="Arial" font-size="13px" font-style="normal" font-weight="bold" text-decoration="undefined" x="592.5" y="1041" text-anchor="middle" dominant-baseline="central" transform="matrix(1 0 0 1 -70 -134)">Backup de dados via E-mail</text></g></g><g><path fill="none" stroke="#000000" paint-order="fill stroke markers" d=" M 147 477 L 486 865" stroke-miterlimit="10" stroke-dasharray=""/></g><g><path fill="#C0C0C0" stroke="none" paint-order="stroke fill markers" d=" M 337 141 C 337 125.53602560000002 383.5623808 113 441 113 C 498.4376192 113 545 125.53602560000002 545 141 C 545 156.46397439999998 498.4376192 169 441 169 C 383.5623808 169 337 156.46397439999998 337 141 Z" fill-opacity="0.2"/></g><g><path fill="#ffffff" stroke="none" paint-order="stroke fill markers" d=" M 330 134 C 330 118.53602559999999 376.5623808 106 434 106 C 491.4376192 106 538 118.53602559999999 538 134 C 538 149.46397439999998 491.4376192 162 434 162 C 376.5623808 162 330 149.46397439999998 330 134 Z"/></g><g><path fill="none" stroke="#000000" paint-order="fill stroke markers" d=" M 330 134 C 330 118.53602559999999 376.5623808 106 434 106 C 491.4376192 106 538 118.53602559999999 538 134 C 538 149.46397439999998 491.4376192 162 434 162 C 376.5623808 162 330 149.46397439999998 330 134 Z" stroke-miterlimit="10" stroke-dasharray=""/></g><g><g><path fill="none" stroke="none"/><text fill="#000000" stroke="none" font-family="Arial" font-size="13px" font-style="normal" font-weight="bold" text-decoration="undefined" x="504" y="269" text-anchor="middle" dominant-baseline="central" transform="matrix(1 0 0 1 -70 -134)">Emitir alerta de roubo</text></g></g><g><path fill="none" stroke="#000000" paint-order="fill stroke markers" d=" M 147 347 L 395 163" stroke-miterlimit="10" stroke-dasharray=""/></g><g><path fill="#C0C0C0" stroke="none" paint-order="stroke fill markers" d=" M 705 105 C 705 91.7451648 752.4578112 81 811 81 C 869.5421888 81 917 91.7451648 917 105 C 917 118.2548352 869.5421888 129 811 129 C 752.4578112 129 705 118.2548352 705 105 Z" fill-opacity="0.2"/></g><g><path fill="#ffffff" stroke="none" paint-order="stroke fill markers" d=" M 698 98 C 698 84.7451648 745.4578112 74 804 74 C 862.5421888 74 910 84.7451648 910 98 C 910 111.2548352 862.5421888 122 804 122 C 745.4578112 122 698 111.2548352 698 98 Z"/></g><g><path fill="none" stroke="#000000" paint-order="fill stroke markers" d=" M 698 98 C 698 84.7451648 745.4578112 74 804 74 C 862.5421888 74 910 84.7451648 910 98 C 910 111.2548352 862.5421888 122 804 122 C 745.4578112 122 698 111.2548352 698 98 Z" stroke-miterlimit="10" stroke-dasharray=""/></g><g><g><path fill="none" stroke="none"/><text fill="#000000" stroke="none" font-family="Arial" font-size="13px" font-style="normal" font-weight="bold" text-decoration="undefined" x="874" y="233" text-anchor="middle" dominant-baseline="central" transform="matrix(1 0 0 1 -70 -134)">Popup de confirmação</text></g></g><g><path fill="none" stroke="#000000" paint-order="fill stroke markers" d=" M 539 124 L 697 108" stroke-miterlimit="10" stroke-dasharray="3"/></g><g><path fill="none" stroke="#000000" paint-order="fill stroke markers" d=" M 687.3131469460816 113.21199365999149 L 697 108 L 686.4649244567354 104.83579657769795" stroke-miterlimit="10" stroke-dasharray=""/></g><g><rect fill="#ffffff" stroke="none" x="657" y="214" width="55.65625" height="13" transform="matrix(1 0 0 1 -70 -134)"/></g><g><g><path fill="none" stroke="none"/><text fill="#000000" stroke="none" font-family="Arial" font-size="13px" font-style="normal" font-weight="normal" text-decoration="undefined" x="684.828125" y="220.5" text-anchor="middle" dominant-baseline="central" transform="matrix(1 0 0 1 -70 -134)">«include»</text></g></g></g></svg>