<svg version="1.1" xmlns="http://www.w3.org/2000/svg" xmlns:xlink="http://www.w3.org/1999/xlink" width="1721.1162109375" height="1628"><defs/><g><g><rect fill="#C0C0C0" stroke="none" x="295" y="135" width="1304" height="1608" transform="matrix(1 0 0 1 -46 -118)" fill-opacity="0.2"/></g><g><rect fill="#ffffff" stroke="none" x="288" y="128" width="1304" height="1608" transform="matrix(1 0 0 1 -46 -118)"/></g><g><path fill="none" stroke="#000000" paint-order="fill stroke markers" d=" M 242 10 L 1546 10 L 1546 1618 L 242 1618 L 242 10 Z Z" stroke-miterlimit="10" stroke-dasharray=""/></g><g><g><path fill="none" stroke="none"/><text fill="#000000" stroke="none" font-family="Arial" font-size="13px" font-style="normal" font-weight="bold" text-decoration="undefined" x="940.5" y="141.5" text-anchor="middle" dominant-baseline="central" transform="matrix(1 0 0 1 -46 -118)">Celular Seguro</text></g></g><g><path fill="#ffffff" stroke="none" paint-order="stroke fill markers" d=" M 52.44436363636365 725.53 C 52.44436363636365 710.877884256 63.88601048203637 699 78 699 C 92.11398951796363 699 103.55563636363635 710.877884256 103.55563636363635 725.53 C 103.55563636363635 740.1821157439999 92.11398951796363 752.06 78 752.06 C 63.88601048203637 752.06 52.44436363636365 740.1821157439999 52.44436363636365 725.53 Z"/></g><g><path fill="none" stroke="#000000" paint-order="fill stroke markers" d=" M 52.44436363636365 725.53 C 52.44436363636365 710.877884256 63.88601048203637 699 78 699 C 92.11398951796363 699 103.55563636363635 710.877884256 103.55563636363635 725.53 C 103.55563636363635 740.1821157439999 92.11398951796363 752.06 78 752.06 C 63.88601048203637 752.06 52.44436363636365 740.1821157439999 52.44436363636365 725.53 Z" stroke-miterlimit="10" stroke-dasharray=""/></g><g><path fill="none" stroke="#000000" paint-order="fill stroke markers" d=" M 78 752.06 L 78 802.94" stroke-miterlimit="10" stroke-dasharray=""/></g><g><path fill="none" stroke="#000000" paint-order="fill stroke markers" d=" M 50.94109090909092 771.14 L 105.05890909090908 771.14" stroke-miterlimit="10" stroke-dasharray=""/></g><g><path fill="none" stroke="#000000" paint-order="fill stroke markers" d=" M 78 802.94 L 40.418181818181836 856" stroke-miterlimit="10" stroke-dasharray=""/></g><g><path fill="none" stroke="#000000" paint-order="fill stroke markers" d=" M 78 802.94 L 115.58181818181816 856" stroke-miterlimit="10" stroke-dasharray=""/></g><g><g><path fill="none" stroke="none"/><text fill="#000000" stroke="none" font-family="Arial" font-size="13px" font-style="normal" font-weight="bold" text-decoration="undefined" x="124.5" y="988.5" text-anchor="middle" dominant-baseline="central" transform="matrix(1 0 0 1 -46 -118)">Usuário</text></g></g><g><path fill="#C0C0C0" stroke="none" paint-order="stroke fill markers" d=" M 409 313 C 409 290.908608 446.6080768 273 493 273 C 539.3919232 273 577 290.908608 577 313 C 577 335.091392 539.3919232 353 493 353 C 446.6080768 353 409 335.091392 409 313 Z" fill-opacity="0.2"/></g><g><path fill="#ffffff" stroke="none" paint-order="stroke fill markers" d=" M 402 306 C 402 283.908608 439.6080768 266 486 266 C 532.3919232 266 570 283.908608 570 306 C 570 328.091392 532.3919232 346 486 346 C 439.6080768 346 402 328.091392 402 306 Z"/></g><g><path fill="none" stroke="#000000" paint-order="fill stroke markers" d=" M 402 306 C 402 283.908608 439.6080768 266 486 266 C 532.3919232 266 570 283.908608 570 306 C 570 328.091392 532.3919232 346 486 346 C 439.6080768 346 402 328.091392 402 306 Z" stroke-miterlimit="10" stroke-dasharray=""/></g><g><g><path fill="none" stroke="none"/><text fill="#000000" stroke="none" font-family="Arial" font-size="13px" font-style="normal" font-weight="bold" text-decoration="undefined" x="532" y="425" text-anchor="middle" dominant-baseline="central" transform="matrix(1 0 0 1 -46 -118)">Registrar boletim</text></g></g><g><path fill="#C0C0C0" stroke="none" paint-order="stroke fill markers" d=" M 489 477 C 489 457.11774720000005 525.0410736 441 569.5 441 C 613.9589264 441 650 457.11774720000005 650 477 C 650 496.88225279999995 613.9589264 513 569.5 513 C 525.0410736 513 489 496.88225279999995 489 477 Z" fill-opacity="0.2"/></g><g><path fill="#ffffff" stroke="none" paint-order="stroke fill markers" d=" M 482 470 C 482 450.11774720000005 518.0410736 434 562.5 434 C 606.9589264 434 643 450.11774720000005 643 470 C 643 489.88225279999995 606.9589264 506 562.5 506 C 518.0410736 506 482 489.88225279999995 482 470 Z"/></g><g><path fill="none" stroke="#000000" paint-order="fill stroke markers" d=" M 482 470 C 482 450.11774720000005 518.0410736 434 562.5 434 C 606.9589264 434 643 450.11774720000005 643 470 C 643 489.88225279999995 606.9589264 506 562.5 506 C 518.0410736 506 482 489.88225279999995 482 470 Z" stroke-miterlimit="10" stroke-dasharray=""/></g><g><g><path fill="none" stroke="none"/><text fill="#000000" stroke="none" font-family="Arial" font-size="13px" font-style="normal" font-weight="bold" text-decoration="undefined" x="608.5" y="589" text-anchor="middle" dominant-baseline="central" transform="matrix(1 0 0 1 -46 -118)">Localizar Celular</text></g></g><g><path fill="#C0C0C0" stroke="none" paint-order="stroke fill markers" d=" M 441 686.5 C 441 661.3710416 502.78469759999996 641 579 641 C 655.2153024 641 717 661.3710416 717 686.5 C 717 711.6289584 655.2153024 732 579 732 C 502.78469759999996 732 441 711.6289584 441 686.5 Z" fill-opacity="0.2"/></g><g><path fill="#ffffff" stroke="none" paint-order="stroke fill markers" d=" M 434 679.5 C 434 654.3710416 495.78469759999996 634 572 634 C 648.2153024 634 710 654.3710416 710 679.5 C 710 704.6289584 648.2153024 725 572 725 C 495.78469759999996 725 434 704.6289584 434 679.5 Z"/></g><g><path fill="none" stroke="#000000" paint-order="fill stroke markers" d=" M 434 679.5 C 434 654.3710416 495.78469759999996 634 572 634 C 648.2153024 634 710 654.3710416 710 679.5 C 710 704.6289584 648.2153024 725 572 725 C 495.78469759999996 725 434 704.6289584 434 679.5 Z" stroke-miterlimit="10" stroke-dasharray=""/></g><g><g><path fill="none" stroke="none"/><text fill="#000000" stroke="none" font-family="Arial" font-size="13px" font-style="normal" font-weight="bold" text-decoration="undefined" x="618" y="798.5" text-anchor="middle" dominant-baseline="central" transform="matrix(1 0 0 1 -46 -118)">Bloqueio remoto do aparelho</text></g></g><g><path fill="#C0C0C0" stroke="none" paint-order="stroke fill markers" d=" M 889 601 C 889 578.908608 974.7374608 561 1080.5 561 C 1186.2625392 561 1272 578.908608 1272 601 C 1272 623.091392 1186.2625392 641 1080.5 641 C 974.7374608 641 889 623.091392 889 601 Z" fill-opacity="0.2"/></g><g><path fill="#ffffff" stroke="none" paint-order="stroke fill markers" d=" M 882 594 C 882 571.908608 967.7374608 554 1073.5 554 C 1179.2625392 554 1265 571.908608 1265 594 C 1265 616.091392 1179.2625392 634 1073.5 634 C 967.7374608 634 882 616.091392 882 594 Z"/></g><g><path fill="none" stroke="#000000" paint-order="fill stroke markers" d=" M 882 594 C 882 571.908608 967.7374608 554 1073.5 554 C 1179.2625392 554 1265 571.908608 1265 594 C 1265 616.091392 1179.2625392 634 1073.5 634 C 967.7374608 634 882 616.091392 882 594 Z" stroke-miterlimit="10" stroke-dasharray=""/></g><g><g><path fill="none" stroke="none"/><text fill="#000000" stroke="none" font-family="Arial" font-size="13px" font-style="normal" font-weight="bold" text-decoration="undefined" x="1119.5" y="713" text-anchor="middle" dominant-baseline="central" transform="matrix(1 0 0 1 -46 -118)">Compartilhar localização com autoridades</text></g></g><g><path fill="#C0C0C0" stroke="none" paint-order="stroke fill markers" d=" M 977 749 C 977 729.1177472 1032.0689696 713 1100 713 C 1167.9310304 713 1223 729.1177472 1223 749 C 1223 768.8822528 1167.9310304 785 1100 785 C 1032.0689696 785 977 768.8822528 977 749 Z" fill-opacity="0.2"/></g><g><path fill="#ffffff" stroke="none" paint-order="stroke fill markers" d=" M 970 742 C 970 722.1177472 1025.0689696 706 1093 706 C 1160.9310304 706 1216 722.1177472 1216 742 C 1216 761.8822528 1160.9310304 778 1093 778 C 1025.0689696 778 970 761.8822528 970 742 Z"/></g><g><path fill="none" stroke="#000000" paint-order="fill stroke markers" d=" M 970 742 C 970 722.1177472 1025.0689696 706 1093 706 C 1160.9310304 706 1216 722.1177472 1216 742 C 1216 761.8822528 1160.9310304 778 1093 778 C 1025.0689696 778 970 761.8822528 970 742 Z" stroke-miterlimit="10" stroke-dasharray=""/></g><g><g><path fill="none" stroke="none"/><text fill="#000000" stroke="none" font-family="Arial" font-size="13px" font-style="normal" font-weight="bold" text-decoration="undefined" x="1139" y="861" text-anchor="middle" dominant-baseline="central" transform="matrix(1 0 0 1 -46 -118)">Apagar dados do aparelho</text></g></g><g><path fill="#ffffff" stroke="none" paint-order="stroke fill markers" d=" M 1600.1592727272728 477.37 C 1600.1592727272728 467.224528224 1608.1468375063273 459 1618 459 C 1627.8531624936727 459 1635.8407272727272 467.224528224 1635.8407272727272 477.37 C 1635.8407272727272 487.515471776 1627.8531624936727 495.74 1618 495.74 C 1608.1468375063273 495.74 1600.1592727272728 487.515471776 1600.1592727272728 477.37 Z"/></g><g><path fill="none" stroke="#000000" paint-order="fill stroke markers" d=" M 1600.1592727272728 477.37 C 1600.1592727272728 467.224528224 1608.1468375063273 459 1618 459 C 1627.8531624936727 459 1635.8407272727272 467.224528224 1635.8407272727272 477.37 C 1635.8407272727272 487.515471776 1627.8531624936727 495.74 1618 495.74 C 1608.1468375063273 495.74 1600.1592727272728 487.515471776 1600.1592727272728 477.37 Z" stroke-miterlimit="10" stroke-dasharray=""/></g><g><path fill="none" stroke="#000000" paint-order="fill stroke markers" d=" M 1618 495.74 L 1618 531.26" stroke-miterlimit="10" stroke-dasharray=""/></g><g><path fill="none" stroke="#000000" paint-order="fill stroke markers" d=" M 1599.1098181818181 509.05999999999995 L 1636.8901818181819 509.05999999999995" stroke-miterlimit="10" stroke-dasharray=""/></g><g><path fill="none" stroke="#000000" paint-order="fill stroke markers" d=" M 1618 531.26 L 1591.7636363636364 568" stroke-miterlimit="10" stroke-dasharray=""/></g><g><path fill="none" stroke="#000000" paint-order="fill stroke markers" d=" M 1618 531.26 L 1644.2363636363636 568" stroke-miterlimit="10" stroke-dasharray=""/></g><g><g><path fill="none" stroke="none"/><text fill="#000000" stroke="none" font-family="Arial" font-size="13px" font-style="normal" font-weight="bold" text-decoration="undefined" x="1664.5" y="700.5" text-anchor="middle" dominant-baseline="central" transform="matrix(1 0 0 1 -46 -118)">Polícia</text></g></g><g><path fill="none" stroke="#000000" paint-order="fill stroke markers" d=" M 147 708 L 451 347" stroke-miterlimit="10" stroke-dasharray=""/></g><g><path fill="#C0C0C0" stroke="none" paint-order="stroke fill markers" d=" M 1001 189 C 1001 169.1177472 1045.9953776 153 1101.5 153 C 1157.0046224 153 1202 169.1177472 1202 189 C 1202 208.8822528 1157.0046224 225 1101.5 225 C 1045.9953776 225 1001 208.8822528 1001 189 Z" fill-opacity="0.2"/></g><g><path fill="#ffffff" stroke="none" paint-order="stroke fill markers" d=" M 994 182 C 994 162.1177472 1038.9953776 146 1094.5 146 C 1150.0046224 146 1195 162.1177472 1195 182 C 1195 201.8822528 1150.0046224 218 1094.5 218 C 1038.9953776 218 994 201.8822528 994 182 Z"/></g><g><path fill="none" stroke="#000000" paint-order="fill stroke markers" d=" M 994 182 C 994 162.1177472 1038.9953776 146 1094.5 146 C 1150.0046224 146 1195 162.1177472 1195 182 C 1195 201.8822528 1150.0046224 218 1094.5 218 C 1038.9953776 218 994 201.8822528 994 182 Z" stroke-miterlimit="10" stroke-dasharray=""/></g><g><g><path fill="none" stroke="none"/><text fill="#000000" stroke="none" font-family="Arial" font-size="13px" font-style="normal" font-weight="bold" text-decoration="undefined" x="1140.5" y="301" text-anchor="middle" dominant-baseline="central" transform="matrix(1 0 0 1 -46 -118)">Notificar Autoridades</text></g></g><g><path fill="none" stroke="#000000" paint-order="fill stroke markers" d=" M 1150 219 L 1569 494" stroke-miterlimit="10" stroke-dasharray=""/></g><g><path fill="none" stroke="#000000" paint-order="fill stroke markers" d=" M 571 289 L 993 203" stroke-miterlimit="10" stroke-dasharray="3"/></g><g><path fill="none" stroke="#000000" paint-order="fill stroke markers" d=" M 983.8825904029125 209.1540915039456 L 993 203 L 982.2014180125616 200.90461768152653" stroke-miterlimit="10" stroke-dasharray=""/></g><g><rect fill="#ffffff" stroke="none" x="795" y="328" width="55.65625" height="13" transform="matrix(1 0 0 1 -46 -118)"/></g><g><g><path fill="none" stroke="none"/><text fill="#000000" stroke="none" font-family="Arial" font-size="13px" font-style="normal" font-weight="normal" text-decoration="undefined" x="822.828125" y="334.5" text-anchor="middle" dominant-baseline="central" transform="matrix(1 0 0 1 -46 -118)">«include»</text></g></g><g><path fill="#C0C0C0" stroke="none" paint-order="stroke fill markers" d=" M 945 273 C 945 255.32688639999998 1003.4268336 241 1075.5 241 C 1147.5731664 241 1206 255.32688639999998 1206 273 C 1206 290.6731136 1147.5731664 305 1075.5 305 C 1003.4268336 305 945 290.6731136 945 273 Z" fill-opacity="0.2"/></g><g><path fill="#ffffff" stroke="none" paint-order="stroke fill markers" d=" M 938 266 C 938 248.32688639999998 996.4268336 234 1068.5 234 C 1140.5731664 234 1199 248.32688639999998 1199 266 C 1199 283.6731136 1140.5731664 298 1068.5 298 C 996.4268336 298 938 283.6731136 938 266 Z"/></g><g><path fill="none" stroke="#000000" paint-order="fill stroke markers" d=" M 938 266 C 938 248.32688639999998 996.4268336 234 1068.5 234 C 1140.5731664 234 1199 248.32688639999998 1199 266 C 1199 283.6731136 1140.5731664 298 1068.5 298 C 996.4268336 298 938 283.6731136 938 266 Z" stroke-miterlimit="10" stroke-dasharray=""/></g><g><g><path fill="none" stroke="none"/><text fill="#000000" stroke="none" font-family="Arial" font-size="13px" font-style="normal" font-weight="bold" text-decoration="undefined" x="1114.5" y="385" text-anchor="middle" dominant-baseline="central" transform="matrix(1 0 0 1 -46 -118)">Consultar Status do Boletim</text></g></g><g><path fill="none" stroke="#000000" paint-order="fill stroke markers" d=" M 937 275 L 571 300" stroke-miterlimit="10" stroke-dasharray="3"/></g><g><path fill="none" stroke="#000000" paint-order="fill stroke markers" d=" M 580.8521825194517 295.10771018812153 L 571 300 L 581.425916370501 303.50717376748275" stroke-miterlimit="10" stroke-dasharray=""/></g><g><rect fill="#ffffff" stroke="none" x="776" y="428" width="53.49169921875" height="13" transform="matrix(1 0 0 1 -46 -118)"/></g><g><g><path fill="none" stroke="none"/><text fill="#000000" stroke="none" font-family="Arial" font-size="13px" font-style="normal" font-weight="normal" text-decoration="undefined" x="802.745849609375" y="434.5" text-anchor="middle" dominant-baseline="central" transform="matrix(1 0 0 1 -46 -118)">«extend»</text></g></g><g><path fill="#C0C0C0" stroke="none" paint-order="stroke fill markers" d=" M 1009 378.5 C 1009 359.9984592 1073.6948464 345 1153.5 345 C 1233.3051536 345 1298 359.9984592 1298 378.5 C 1298 397.00154080000004 1233.3051536 412 1153.5 412 C 1073.6948464 412 1009 397.00154080000004 1009 378.5 Z" fill-opacity="0.2"/></g><g><path fill="#ffffff" stroke="none" paint-order="stroke fill markers" d=" M 1002 371.5 C 1002 352.9984592 1066.6948464 338 1146.5 338 C 1226.3051536 338 1291 352.9984592 1291 371.5 C 1291 390.0015408 1226.3051536 405 1146.5 405 C 1066.6948464 405 1002 390.0015408 1002 371.5 Z"/></g><g><path fill="none" stroke="#000000" paint-order="fill stroke markers" d=" M 1002 371.5 C 1002 352.9984592 1066.6948464 338 1146.5 338 C 1226.3051536 338 1291 352.9984592 1291 371.5 C 1291 390.0015408 1226.3051536 405 1146.5 405 C 1066.6948464 405 1002 390.0015408 1002 371.5 Z" stroke-miterlimit="10" stroke-dasharray=""/></g><g><g><path fill="none" stroke="none"/><text fill="#000000" stroke="none" font-family="Arial" font-size="13px" font-style="normal" font-weight="bold" text-decoration="undefined" x="1192.5" y="490.5" text-anchor="middle" dominant-baseline="central" transform="matrix(1 0 0 1 -46 -118)">Gerar Relatório sobre o boletim</text></g></g><g><path fill="none" stroke="#000000" paint-order="fill stroke markers" d=" M 1001 357 L 571 314" stroke-miterlimit="10" stroke-dasharray="3"/></g><g><path fill="none" stroke="#000000" paint-order="fill stroke markers" d=" M 581.5311021073566 310.8225972234496 L 571 314 L 580.6933767633395 319.19985066362" stroke-miterlimit="10" stroke-dasharray=""/></g><g><rect fill="#ffffff" stroke="none" x="803" y="476" width="53.49169921875" height="13" transform="matrix(1 0 0 1 -46 -118)"/></g><g><g><path fill="none" stroke="none"/><text fill="#000000" stroke="none" font-family="Arial" font-size="13px" font-style="normal" font-weight="normal" text-decoration="undefined" x="829.745849609375" y="482.5" text-anchor="middle" dominant-baseline="central" transform="matrix(1 0 0 1 -46 -118)">«extend»</text></g></g><g><path fill="none" stroke="#000000" paint-order="fill stroke markers" d=" M 147 744 L 506 507" stroke-miterlimit="10" stroke-dasharray=""/></g><g><path fill="none" stroke="#000000" paint-order="fill stroke markers" d=" M 904 553 L 644 490" stroke-miterlimit="10" stroke-dasharray="3"/></g><g><path fill="none" stroke="#000000" paint-order="fill stroke markers" d=" M 654.8681722815094 488.3021097622549 L 644 490 L 652.885548020179 496.48436861853895" stroke-miterlimit="10" stroke-dasharray=""/></g><g><rect fill="#ffffff" stroke="none" x="787" y="662" width="53.49169921875" height="13" transform="matrix(1 0 0 1 -46 -118)"/></g><g><g><path fill="none" stroke="none"/><text fill="#000000" stroke="none" font-family="Arial" font-size="13px" font-style="normal" font-weight="normal" text-decoration="undefined" x="813.745849609375" y="668.5" text-anchor="middle" dominant-baseline="central" transform="matrix(1 0 0 1 -46 -118)">«extend»</text></g></g><g><path fill="none" stroke="#000000" paint-order="fill stroke markers" d=" M 1266 570 L 1569 532" stroke-miterlimit="10" stroke-dasharray=""/></g><g><path fill="#C0C0C0" stroke="none" paint-order="stroke fill markers" d=" M 849 469 C 849 449.11774720000005 913.2471312 433 992.5 433 C 1071.7528688 433 1136 449.11774720000005 1136 469 C 1136 488.88225279999995 1071.7528688 505 992.5 505 C 913.2471312 505 849 488.88225279999995 849 469 Z" fill-opacity="0.2"/></g><g><path fill="#ffffff" stroke="none" paint-order="stroke fill markers" d=" M 842 462 C 842 442.11774720000005 906.2471312 426 985.5 426 C 1064.7528688 426 1129 442.11774720000005 1129 462 C 1129 481.88225279999995 1064.7528688 498 985.5 498 C 906.2471312 498 842 481.88225279999995 842 462 Z"/></g><g><path fill="none" stroke="#000000" paint-order="fill stroke markers" d=" M 842 462 C 842 442.11774720000005 906.2471312 426 985.5 426 C 1064.7528688 426 1129 442.11774720000005 1129 462 C 1129 481.88225279999995 1064.7528688 498 985.5 498 C 906.2471312 498 842 481.88225279999995 842 462 Z" stroke-miterlimit="10" stroke-dasharray=""/></g><g><g><path fill="none" stroke="none"/><text fill="#000000" stroke="none" font-family="Arial" font-size="13px" font-style="normal" font-weight="bold" text-decoration="undefined" x="1031.5" y="581" text-anchor="middle" dominant-baseline="central" transform="matrix(1 0 0 1 -46 -118)">Notificar nível de bateria crítico</text></g></g><g><path fill="none" stroke="#000000" paint-order="fill stroke markers" d=" M 644 468 L 841 465" stroke-miterlimit="10" stroke-dasharray="3"/></g><g><path fill="none" stroke="#000000" paint-order="fill stroke markers" d=" M 830.9026002244125 469.3637733410393 L 841 465 L 830.7744064253206 460.9457138673405" stroke-miterlimit="10" stroke-dasharray=""/></g><g><rect fill="#ffffff" stroke="none" x="760" y="548" width="55.65625" height="13" transform="matrix(1 0 0 1 -46 -118)"/></g><g><g><path fill="none" stroke="none"/><text fill="#000000" stroke="none" font-family="Arial" font-size="13px" font-style="normal" font-weight="normal" text-decoration="undefined" x="787.828125" y="554.5" text-anchor="middle" dominant-baseline="central" transform="matrix(1 0 0 1 -46 -118)">«include»</text></g></g><g><path fill="none" stroke="#000000" paint-order="fill stroke markers" d=" M 147 774 L 433 710" stroke-miterlimit="10" stroke-dasharray=""/></g><g><path fill="none" stroke="#000000" paint-order="fill stroke markers" d=" M 969 727 L 711 696" stroke-miterlimit="10" stroke-dasharray="3"/></g><g><path fill="none" stroke="#000000" paint-order="fill stroke markers" d=" M 721.5922820025477 693.0329202945481 L 711 696 L 720.5879166122877 701.3918322521956" stroke-miterlimit="10" stroke-dasharray=""/></g><g><rect fill="#ffffff" stroke="none" x="856" y="852" width="53.49169921875" height="13" transform="matrix(1 0 0 1 -46 -118)"/></g><g><g><path fill="none" stroke="none"/><text fill="#000000" stroke="none" font-family="Arial" font-size="13px" font-style="normal" font-weight="normal" text-decoration="undefined" x="882.745849609375" y="858.5" text-anchor="middle" dominant-baseline="central" transform="matrix(1 0 0 1 -46 -118)">«extend»</text></g></g><g><path fill="#C0C0C0" stroke="none" paint-order="stroke fill markers" d=" M 1001 869 C 1001 849.1177472 1042.8613712 833 1094.5 833 C 1146.1386288 833 1188 849.1177472 1188 869 C 1188 888.8822528 1146.1386288 905 1094.5 905 C 1042.8613712 905 1001 888.8822528 1001 869 Z" fill-opacity="0.2"/></g><g><path fill="#ffffff" stroke="none" paint-order="stroke fill markers" d=" M 994 862 C 994 842.1177472 1035.8613712 826 1087.5 826 C 1139.1386288 826 1181 842.1177472 1181 862 C 1181 881.8822528 1139.1386288 898 1087.5 898 C 1035.8613712 898 994 881.8822528 994 862 Z"/></g><g><path fill="none" stroke="#000000" paint-order="fill stroke markers" d=" M 994 862 C 994 842.1177472 1035.8613712 826 1087.5 826 C 1139.1386288 826 1181 842.1177472 1181 862 C 1181 881.8822528 1139.1386288 898 1087.5 898 C 1035.8613712 898 994 881.8822528 994 862 Z" stroke-miterlimit="10" stroke-dasharray=""/></g><g><g><path fill="none" stroke="none"/><text fill="#000000" stroke="none" font-family="Arial" font-size="13px" font-style="normal" font-weight="bold" text-decoration="undefined" x="1133.5" y="981" text-anchor="middle" dominant-baseline="central" transform="matrix(1 0 0 1 -46 -118)">Emitir alerta sonoro</text></g></g><g><path fill="none" stroke="#000000" paint-order="fill stroke markers" d=" M 993 829 L 704 726" stroke-miterlimit="10" stroke-dasharray="3"/></g><g><path fill="none" stroke="#000000" paint-order="fill stroke markers" d=" M 714.986069241473 725.4465719364179 L 704 726 L 712.1596567958884 733.3769913225726" stroke-miterlimit="10" stroke-dasharray=""/></g><g><rect fill="#ffffff" stroke="none" x="857" y="917" width="53.49169921875" height="13" transform="matrix(1 0 0 1 -46 -118)"/></g><g><g><path fill="none" stroke="none"/><text fill="#000000" stroke="none" font-family="Arial" font-size="13px" font-style="normal" font-weight="normal" text-decoration="undefined" x="883.745849609375" y="923.5" text-anchor="middle" dominant-baseline="central" transform="matrix(1 0 0 1 -46 -118)">«extend»</text></g></g><g><path fill="#C0C0C0" stroke="none" paint-order="stroke fill markers" d=" M 641 1137 C 641 1114.908608 698.9791184000001 1097 770.5 1097 C 842.0208815999999 1097 900 1114.908608 900 1137 C 900 1159.091392 842.0208815999999 1177 770.5 1177 C 698.9791184000001 1177 641 1159.091392 641 1137 Z" fill-opacity="0.2"/></g><g><path fill="#ffffff" stroke="none" paint-order="stroke fill markers" d=" M 634 1130 C 634 1107.908608 691.9791184000001 1090 763.5 1090 C 835.0208815999999 1090 893 1107.908608 893 1130 C 893 1152.091392 835.0208815999999 1170 763.5 1170 C 691.9791184000001 1170 634 1152.091392 634 1130 Z"/></g><g><path fill="none" stroke="#000000" paint-order="fill stroke markers" d=" M 634 1130 C 634 1107.908608 691.9791184000001 1090 763.5 1090 C 835.0208815999999 1090 893 1107.908608 893 1130 C 893 1152.091392 835.0208815999999 1170 763.5 1170 C 691.9791184000001 1170 634 1152.091392 634 1130 Z" stroke-miterlimit="10" stroke-dasharray=""/></g><g><g><path fill="none" stroke="none"/><text fill="#000000" stroke="none" font-family="Arial" font-size="13px" font-style="normal" font-weight="bold" text-decoration="undefined" x="809.5" y="1249" text-anchor="middle" dominant-baseline="central" transform="matrix(1 0 0 1 -46 -118)">Backup de dados peródicos</text></g></g><g><path fill="none" stroke="#000000" paint-order="fill stroke markers" d=" M 147 824 L 680 1089" stroke-miterlimit="10" stroke-dasharray=""/></g><g><path fill="#C0C0C0" stroke="none" paint-order="stroke fill markers" d=" M 361 157 C 361 141.53602560000002 407.5623808 129 465 129 C 522.4376192 129 569 141.53602560000002 569 157 C 569 172.46397439999998 522.4376192 185 465 185 C 407.5623808 185 361 172.46397439999998 361 157 Z" fill-opacity="0.2"/></g><g><path fill="#ffffff" stroke="none" paint-order="stroke fill markers" d=" M 354 150 C 354 134.5360256 400.5623808 122 458 122 C 515.4376192 122 562 134.5360256 562 150 C 562 165.46397439999998 515.4376192 178 458 178 C 400.5623808 178 354 165.46397439999998 354 150 Z"/></g><g><path fill="none" stroke="#000000" paint-order="fill stroke markers" d=" M 354 150 C 354 134.5360256 400.5623808 122 458 122 C 515.4376192 122 562 134.5360256 562 150 C 562 165.46397439999998 515.4376192 178 458 178 C 400.5623808 178 354 165.46397439999998 354 150 Z" stroke-miterlimit="10" stroke-dasharray=""/></g><g><g><path fill="none" stroke="none"/><text fill="#000000" stroke="none" font-family="Arial" font-size="13px" font-style="normal" font-weight="bold" text-decoration="undefined" x="504" y="269" text-anchor="middle" dominant-baseline="central" transform="matrix(1 0 0 1 -46 -118)">Emitir alerta de roubo</text></g></g><g><path fill="none" stroke="#000000" paint-order="fill stroke markers" d=" M 133 697 L 441 179" stroke-miterlimit="10" stroke-dasharray=""/></g><g><path fill="#C0C0C0" stroke="none" paint-order="stroke fill markers" d=" M 649 113 C 649 99.7451648 696.4578112 89 755 89 C 813.5421888 89 861 99.7451648 861 113 C 861 126.2548352 813.5421888 137 755 137 C 696.4578112 137 649 126.2548352 649 113 Z" fill-opacity="0.2"/></g><g><path fill="#ffffff" stroke="none" paint-order="stroke fill markers" d=" M 642 106 C 642 92.7451648 689.4578112 82 748 82 C 806.5421888 82 854 92.7451648 854 106 C 854 119.2548352 806.5421888 130 748 130 C 689.4578112 130 642 119.2548352 642 106 Z"/></g><g><path fill="none" stroke="#000000" paint-order="fill stroke markers" d=" M 642 106 C 642 92.7451648 689.4578112 82 748 82 C 806.5421888 82 854 92.7451648 854 106 C 854 119.2548352 806.5421888 130 748 130 C 689.4578112 130 642 119.2548352 642 106 Z" stroke-miterlimit="10" stroke-dasharray=""/></g><g><g><path fill="none" stroke="none"/><text fill="#000000" stroke="none" font-family="Arial" font-size="13px" font-style="normal" font-weight="bold" text-decoration="undefined" x="794" y="225" text-anchor="middle" dominant-baseline="central" transform="matrix(1 0 0 1 -46 -118)">Popup de confirmação</text></g></g><g><path fill="none" stroke="#000000" paint-order="fill stroke markers" d=" M 563 134 L 641 122" stroke-miterlimit="10" stroke-dasharray="3"/></g><g><path fill="none" stroke="#000000" paint-order="fill stroke markers" d=" M 631.5955872153455 127.7058759341426 L 641 122 L 630.315412381252 119.38473951253471" stroke-miterlimit="10" stroke-dasharray=""/></g><g><rect fill="#ffffff" stroke="none" x="616" y="210" width="55.65625" height="13" transform="matrix(1 0 0 1 -46 -118)"/></g><g><g><path fill="none" stroke="none"/><text fill="#000000" stroke="none" font-family="Arial" font-size="13px" font-style="normal" font-weight="normal" text-decoration="undefined" x="643.828125" y="216.5" text-anchor="middle" dominant-baseline="central" transform="matrix(1 0 0 1 -46 -118)">«include»</text></g></g><g><path fill="#C0C0C0" stroke="none" paint-order="stroke fill markers" d=" M 593 1265 C 593 1247.3268864 660.6049952 1233 744 1233 C 827.3950048 1233 895 1247.3268864 895 1265 C 895 1282.6731136 827.3950048 1297 744 1297 C 660.6049952 1297 593 1282.6731136 593 1265 Z" fill-opacity="0.2"/></g><g><path fill="#ffffff" stroke="none" paint-order="stroke fill markers" d=" M 586 1258 C 586 1240.3268864 653.6049952 1226 737 1226 C 820.3950048 1226 888 1240.3268864 888 1258 C 888 1275.6731136 820.3950048 1290 737 1290 C 653.6049952 1290 586 1275.6731136 586 1258 Z"/></g><g><path fill="none" stroke="#000000" paint-order="fill stroke markers" d=" M 586 1258 C 586 1240.3268864 653.6049952 1226 737 1226 C 820.3950048 1226 888 1240.3268864 888 1258 C 888 1275.6731136 820.3950048 1290 737 1290 C 653.6049952 1290 586 1275.6731136 586 1258 Z" stroke-miterlimit="10" stroke-dasharray=""/></g><g><g><path fill="none" stroke="none"/><text fill="#000000" stroke="none" font-family="Arial" font-size="13px" font-style="normal" font-weight="bold" text-decoration="undefined" x="783" y="1377" text-anchor="middle" dominant-baseline="central" transform="matrix(1 0 0 1 -46 -118)">Gerar relatório de movimentação</text></g></g><g><path fill="#C0C0C0" stroke="none" paint-order="stroke fill markers" d=" M 993 1449 C 993 1431.3268864 1058.3664192 1417 1139 1417 C 1219.6335808 1417 1285 1431.3268864 1285 1449 C 1285 1466.6731136 1219.6335808 1481 1139 1481 C 1058.3664192 1481 993 1466.6731136 993 1449 Z" fill-opacity="0.2"/></g><g><path fill="#ffffff" stroke="none" paint-order="stroke fill markers" d=" M 986 1442 C 986 1424.3268864 1051.3664192 1410 1132 1410 C 1212.6335808 1410 1278 1424.3268864 1278 1442 C 1278 1459.6731136 1212.6335808 1474 1132 1474 C 1051.3664192 1474 986 1459.6731136 986 1442 Z"/></g><g><path fill="none" stroke="#000000" paint-order="fill stroke markers" d=" M 986 1442 C 986 1424.3268864 1051.3664192 1410 1132 1410 C 1212.6335808 1410 1278 1424.3268864 1278 1442 C 1278 1459.6731136 1212.6335808 1474 1132 1474 C 1051.3664192 1474 986 1459.6731136 986 1442 Z" stroke-miterlimit="10" stroke-dasharray=""/></g><g><g><path fill="none" stroke="none"/><text fill="#000000" stroke="none" font-family="Arial" font-size="13px" font-style="normal" font-weight="bold" text-decoration="undefined" x="1178" y="1561" text-anchor="middle" dominant-baseline="central" transform="matrix(1 0 0 1 -46 -118)">Definir dispositivo de confiança</text></g></g><g><path fill="#C0C0C0" stroke="none" paint-order="stroke fill markers" d=" M 529 1453 C 529 1437.5360256 575.5623808 1425 633 1425 C 690.4376192 1425 737 1437.5360256 737 1453 C 737 1468.4639744 690.4376192 1481 633 1481 C 575.5623808 1481 529 1468.4639744 529 1453 Z" fill-opacity="0.2"/></g><g><path fill="#ffffff" stroke="none" paint-order="stroke fill markers" d=" M 522 1446 C 522 1430.5360256 568.5623808 1418 626 1418 C 683.4376192 1418 730 1430.5360256 730 1446 C 730 1461.4639744 683.4376192 1474 626 1474 C 568.5623808 1474 522 1461.4639744 522 1446 Z"/></g><g><path fill="none" stroke="#000000" paint-order="fill stroke markers" d=" M 522 1446 C 522 1430.5360256 568.5623808 1418 626 1418 C 683.4376192 1418 730 1430.5360256 730 1446 C 730 1461.4639744 683.4376192 1474 626 1474 C 568.5623808 1474 522 1461.4639744 522 1446 Z" stroke-miterlimit="10" stroke-dasharray=""/></g><g><g><path fill="none" stroke="none"/><text fill="#000000" stroke="none" font-family="Arial" font-size="13px" font-style="normal" font-weight="bold" text-decoration="undefined" x="672" y="1565" text-anchor="middle" dominant-baseline="central" transform="matrix(1 0 0 1 -46 -118)">Editar perfil</text></g></g><g><path fill="#C0C0C0" stroke="none" paint-order="stroke fill markers" d=" M 609 953 C 609 930.908608 666.0836879999999 913 736.5 913 C 806.9163120000001 913 864 930.908608 864 953 C 864 975.091392 806.9163120000001 993 736.5 993 C 666.0836879999999 993 609 975.091392 609 953 Z" fill-opacity="0.2"/></g><g><path fill="#ffffff" stroke="none" paint-order="stroke fill markers" d=" M 602 946 C 602 923.908608 659.0836879999999 906 729.5 906 C 799.9163120000001 906 857 923.908608 857 946 C 857 968.091392 799.9163120000001 986 729.5 986 C 659.0836879999999 986 602 968.091392 602 946 Z"/></g><g><path fill="none" stroke="#000000" paint-order="fill stroke markers" d=" M 602 946 C 602 923.908608 659.0836879999999 906 729.5 906 C 799.9163120000001 906 857 923.908608 857 946 C 857 968.091392 799.9163120000001 986 729.5 986 C 659.0836879999999 986 602 968.091392 602 946 Z" stroke-miterlimit="10" stroke-dasharray=""/></g><g><g><path fill="none" stroke="none"/><text fill="#000000" stroke="none" font-family="Arial" font-size="13px" font-style="normal" font-weight="bold" text-decoration="undefined" x="775.5" y="1065" text-anchor="middle" dominant-baseline="central" transform="matrix(1 0 0 1 -46 -118)">Gerenciar contas bancarias</text></g></g><g><path fill="#C0C0C0" stroke="none" paint-order="stroke fill markers" d=" M 1057 89 C 1057 71.3268864 1109.1588208 57 1173.5 57 C 1237.8411792 57 1290 71.3268864 1290 89 C 1290 106.6731136 1237.8411792 121 1173.5 121 C 1109.1588208 121 1057 106.6731136 1057 89 Z" fill-opacity="0.2"/></g><g><path fill="#ffffff" stroke="none" paint-order="stroke fill markers" d=" M 1050 82 C 1050 64.3268864 1102.1588208 50 1166.5 50 C 1230.8411792 50 1283 64.3268864 1283 82 C 1283 99.6731136 1230.8411792 114 1166.5 114 C 1102.1588208 114 1050 99.6731136 1050 82 Z"/></g><g><path fill="none" stroke="#000000" paint-order="fill stroke markers" d=" M 1050 82 C 1050 64.3268864 1102.1588208 50 1166.5 50 C 1230.8411792 50 1283 64.3268864 1283 82 C 1283 99.6731136 1230.8411792 114 1166.5 114 C 1102.1588208 114 1050 99.6731136 1050 82 Z" stroke-miterlimit="10" stroke-dasharray=""/></g><g><g><path fill="none" stroke="none"/><text fill="#000000" stroke="none" font-family="Arial" font-size="13px" font-style="normal" font-weight="bold" text-decoration="undefined" x="1212.5" y="201" text-anchor="middle" dominant-baseline="central" transform="matrix(1 0 0 1 -46 -118)">Guia de Ações Pós-Furto</text></g></g><g><path fill="none" stroke="#000000" paint-order="fill stroke markers" d=" M 855 100 L 1049 89" stroke-miterlimit="10" stroke-dasharray="3"/></g><g><path fill="none" stroke="#000000" paint-order="fill stroke markers" d=" M 1039.091923624817 93.77807728522038 L 1049 89 L 1038.6153211571811 85.37254285600656" stroke-miterlimit="10" stroke-dasharray=""/></g><g><rect fill="#ffffff" stroke="none" x="969" y="176" width="55.65625" height="13" transform="matrix(1 0 0 1 -46 -118)"/></g><g><g><path fill="none" stroke="none"/><text fill="#000000" stroke="none" font-family="Arial" font-size="13px" font-style="normal" font-weight="normal" text-decoration="undefined" x="996.828125" y="182.5" text-anchor="middle" dominant-baseline="central" transform="matrix(1 0 0 1 -46 -118)">«include»</text></g></g><g><path fill="#ffffff" stroke="none" paint-order="stroke fill markers" d=" M 1624.9315600142047 878.73 C 1624.9315600142047 867.833420896 1633.4948051376955 859 1644.05810546875 859 C 1654.6214057998045 859 1663.1846509232953 867.833420896 1663.1846509232953 878.73 C 1663.1846509232953 889.626579104 1654.6214057998045 898.46 1644.05810546875 898.46 C 1633.4948051376955 898.46 1624.9315600142047 889.626579104 1624.9315600142047 878.73 Z"/></g><g><path fill="none" stroke="#000000" paint-order="fill stroke markers" d=" M 1624.9315600142047 878.73 C 1624.9315600142047 867.833420896 1633.4948051376955 859 1644.05810546875 859 C 1654.6214057998045 859 1663.1846509232953 867.833420896 1663.1846509232953 878.73 C 1663.1846509232953 889.626579104 1654.6214057998045 898.46 1644.05810546875 898.46 C 1633.4948051376955 898.46 1624.9315600142047 889.626579104 1624.9315600142047 878.73 Z" stroke-miterlimit="10" stroke-dasharray=""/></g><g><path fill="none" stroke="#000000" paint-order="fill stroke markers" d=" M 1644.05810546875 898.46 L 1644.05810546875 936.54" stroke-miterlimit="10" stroke-dasharray=""/></g><g><path fill="none" stroke="#000000" paint-order="fill stroke markers" d=" M 1623.8064691051138 912.74 L 1664.3097418323862 912.74" stroke-miterlimit="10" stroke-dasharray=""/></g><g><path fill="none" stroke="#000000" paint-order="fill stroke markers" d=" M 1644.05810546875 936.54 L 1615.9308327414774 976" stroke-miterlimit="10" stroke-dasharray=""/></g><g><path fill="none" stroke="#000000" paint-order="fill stroke markers" d=" M 1644.05810546875 936.54 L 1672.1853781960226 976" stroke-miterlimit="10" stroke-dasharray=""/></g><g><g><path fill="none" stroke="none"/><text fill="#000000" stroke="none" font-family="Arial" font-size="13px" font-style="normal" font-weight="bold" text-decoration="undefined" x="1690.55810546875" y="1108.5" text-anchor="middle" dominant-baseline="central" transform="matrix(1 0 0 1 -46 -118)">Sistemas bancários</text></g></g><g><path fill="none" stroke="#000000" paint-order="fill stroke markers" d=" M 1577 931 L 858 944" stroke-miterlimit="10" stroke-dasharray=""/></g><g><path fill="none" stroke="#000000" paint-order="fill stroke markers" d=" M 147 807 L 601 915" stroke-miterlimit="10" stroke-dasharray=""/></g><g><path fill="none" stroke="#000000" paint-order="fill stroke markers" d=" M 147 839 L 691 1225" stroke-miterlimit="10" stroke-dasharray=""/></g><g><path fill="none" stroke="#000000" paint-order="fill stroke markers" d=" M 147 873 L 602 1417" stroke-miterlimit="10" stroke-dasharray=""/></g><g><path fill="#C0C0C0" stroke="none" paint-order="stroke fill markers" d=" M 1073 1130.5 C 1073 1120.835016 1106.57864 1113 1148 1113 C 1189.42136 1113 1223 1120.835016 1223 1130.5 C 1223 1140.164984 1189.42136 1148 1148 1148 C 1106.57864 1148 1073 1140.164984 1073 1130.5 Z" fill-opacity="0.2"/></g><g><path fill="#ffffff" stroke="none" paint-order="stroke fill markers" d=" M 1066 1123.5 C 1066 1113.835016 1099.57864 1106 1141 1106 C 1182.42136 1106 1216 1113.835016 1216 1123.5 C 1216 1133.164984 1182.42136 1141 1141 1141 C 1099.57864 1141 1066 1133.164984 1066 1123.5 Z"/></g><g><path fill="none" stroke="#000000" paint-order="fill stroke markers" d=" M 1066 1123.5 C 1066 1113.835016 1099.57864 1106 1141 1106 C 1182.42136 1106 1216 1113.835016 1216 1123.5 C 1216 1133.164984 1182.42136 1141 1141 1141 C 1099.57864 1141 1066 1133.164984 1066 1123.5 Z" stroke-miterlimit="10" stroke-dasharray=""/></g><g><g><path fill="none" stroke="none"/><text fill="#000000" stroke="none" font-family="Arial" font-size="13px" font-style="normal" font-weight="bold" text-decoration="undefined" x="1187" y="1242.5" text-anchor="middle" dominant-baseline="central" transform="matrix(1 0 0 1 -46 -118)">Enviar via Emal</text></g></g><g><path fill="none" stroke="#000000" paint-order="fill stroke markers" d=" M 1065 1124 L 894 1128" stroke-miterlimit="10" stroke-dasharray="3"/></g><g><path fill="none" stroke="#000000" paint-order="fill stroke markers" d=" M 904.0614542847431 1123.5539750702426 L 894 1128 L 904.2583369304962 1131.9707081761844" stroke-miterlimit="10" stroke-dasharray=""/></g><g><rect fill="#ffffff" stroke="none" x="999" y="1267" width="53.49169921875" height="13" transform="matrix(1 0 0 1 -46 -118)"/></g><g><g><path fill="none" stroke="none"/><text fill="#000000" stroke="none" font-family="Arial" font-size="13px" font-style="normal" font-weight="normal" text-decoration="undefined" x="1025.745849609375" y="1273.5" text-anchor="middle" dominant-baseline="central" transform="matrix(1 0 0 1 -46 -118)">«extend»</text></g></g><g><path fill="none" stroke="#000000" paint-order="fill stroke markers" d=" M 985 1443 L 731 1445" stroke-miterlimit="10" stroke-dasharray="3"/></g><g><path fill="none" stroke="#000000" paint-order="fill stroke markers" d=" M 741.1292150470941 1440.7105941518992 L 731 1445 L 741.1955046103504 1449.1293686854438" stroke-miterlimit="10" stroke-dasharray=""/></g><g><rect fill="#ffffff" stroke="none" x="878" y="1585" width="53.49169921875" height="13" transform="matrix(1 0 0 1 -46 -118)"/></g><g><g><path fill="none" stroke="none"/><text fill="#000000" stroke="none" font-family="Arial" font-size="13px" font-style="normal" font-weight="normal" text-decoration="undefined" x="904.745849609375" y="1591.5" text-anchor="middle" dominant-baseline="central" transform="matrix(1 0 0 1 -46 -118)">«extend»</text></g></g></g></svg>